M48
; DRILL file KiCad 10.0.1 date 2026-04-25T00:08:55
; FORMAT={-:-/ absolute / metric / decimal}
; #@! TF.CreationDate,2026-04-25T00:08:55-05:00
; #@! TF.GenerationSoftware,Kicad,Pcbnew,10.0.1
; #@! TF.FileFunction,Plated,1,2,PTH
FMAT,2
METRIC
; #@! TA.AperFunction,Plated,PTH,ViaDrill
T1C0.300
; #@! TA.AperFunction,Plated,PTH,ComponentDrill
T2C0.800
; #@! TA.AperFunction,Plated,PTH,ComponentDrill
T3C1.000
; #@! TA.AperFunction,Plated,PTH,ComponentDrill
T4C4.000
%
G90
G05
T1
X137.0Y-89.5
X138.789Y-84.131
X139.5Y-95.5
X142.0Y-101.0
X142.5Y-82.5
X142.5Y-89.5
X143.1Y-90.5
X143.5Y-105.5
X144.0Y-88.5
X144.5Y-84.5
X144.5Y-91.0
X144.6Y-92.0
X145.0Y-89.5
X145.5Y-87.0
X146.0Y-105.5
X146.5Y-79.756
X146.5Y-113.25
X148.0Y-93.0
X148.5Y-99.5
X149.0Y-104.5
X149.7Y-93.549
X150.0Y-102.0
X150.0Y-103.5
X150.6Y-99.5
X150.674Y-98.674
X151.0Y-79.5
X151.5Y-93.5
X152.9Y-86.5
X153.4Y-93.5
X153.6Y-79.5
X154.5Y-91.5
X154.5Y-97.4
X154.5Y-100.5
X154.5Y-106.5
X154.6Y-83.0
X155.0Y-87.5
X155.5Y-83.0
X155.5Y-90.5
X155.5Y-105.5
X155.5Y-113.25
X155.6Y-88.5
X156.0Y-87.0
X156.0Y-106.5
X156.4Y-89.5
X156.5Y-92.5
X156.5Y-93.5
X157.0Y-83.0
X157.174Y-85.826
X157.307Y-91.1
X158.0Y-91.5
X158.0Y-105.5
X158.4Y-89.5
X158.496Y-108.712
X159.0Y-91.5
X159.1Y-97.0
X159.1Y-99.0
X159.6Y-93.5
X160.0Y-106.9
X160.5Y-92.5
X160.5Y-105.0
X161.066Y-93.066
X161.1Y-89.088
X161.244Y-88.301
X161.342Y-87.507
X162.0Y-105.0
X162.0Y-105.895
X163.0Y-101.0
X164.5Y-81.0
X164.5Y-82.0
X166.0Y-98.0
X166.5Y-95.5
X168.5Y-107.0
X170.0Y-86.5
X170.25Y-99.25
X171.0Y-106.5
X173.5Y-94.5
T2
X140.0Y-85.162
X140.0Y-87.662
X140.0Y-90.162
T3
X164.115Y-88.0
X164.115Y-90.54
X164.115Y-93.08
X164.115Y-95.62
X164.115Y-98.16
T4
X140.0Y-80.0
X140.0Y-110.5
X170.5Y-80.0
X170.5Y-110.5
M30
