%TF.GenerationSoftware,KiCad,Pcbnew,10.0.1*%
%TF.CreationDate,2026-04-25T00:08:49-05:00*%
%TF.ProjectId,REALdronePCB,5245414c-6472-46f6-9e65-5043422e6b69,rev?*%
%TF.SameCoordinates,Original*%
%TF.FileFunction,Copper,L2,Bot*%
%TF.FilePolarity,Positive*%
%FSLAX46Y46*%
G04 Gerber Fmt 4.6, Leading zero omitted, Abs format (unit mm)*
G04 Created by KiCad (PCBNEW 10.0.1) date 2026-04-25 00:08:49*
%MOMM*%
%LPD*%
G01*
G04 APERTURE LIST*
G04 Aperture macros list*
%AMRoundRect*
0 Rectangle with rounded corners*
0 $1 Rounding radius*
0 $2 $3 $4 $5 $6 $7 $8 $9 X,Y pos of 4 corners*
0 Add a 4 corners polygon primitive as box body*
4,1,4,$2,$3,$4,$5,$6,$7,$8,$9,$2,$3,0*
0 Add four circle primitives for the rounded corners*
1,1,$1+$1,$2,$3*
1,1,$1+$1,$4,$5*
1,1,$1+$1,$6,$7*
1,1,$1+$1,$8,$9*
0 Add four rect primitives between the rounded corners*
20,1,$1+$1,$2,$3,$4,$5,0*
20,1,$1+$1,$4,$5,$6,$7,0*
20,1,$1+$1,$6,$7,$8,$9,0*
20,1,$1+$1,$8,$9,$2,$3,0*%
G04 Aperture macros list end*
%TA.AperFunction,Conductor*%
%ADD10C,0.200000*%
%TD*%
%TA.AperFunction,ComponentPad*%
%ADD11C,5.000000*%
%TD*%
%TA.AperFunction,ComponentPad*%
%ADD12R,1.700000X1.700000*%
%TD*%
%TA.AperFunction,ComponentPad*%
%ADD13C,1.700000*%
%TD*%
%TA.AperFunction,SMDPad,CuDef*%
%ADD14RoundRect,0.250000X-0.400000X0.550000X-0.400000X-0.550000X0.400000X-0.550000X0.400000X0.550000X0*%
%TD*%
%TA.AperFunction,SMDPad,CuDef*%
%ADD15R,1.000000X1.000000*%
%TD*%
%TA.AperFunction,SMDPad,CuDef*%
%ADD16R,4.000000X1.200000*%
%TD*%
%TA.AperFunction,SMDPad,CuDef*%
%ADD17RoundRect,0.250000X0.350000X0.450000X-0.350000X0.450000X-0.350000X-0.450000X0.350000X-0.450000X0*%
%TD*%
%TA.AperFunction,SMDPad,CuDef*%
%ADD18RoundRect,0.237500X-0.237500X0.300000X-0.237500X-0.300000X0.237500X-0.300000X0.237500X0.300000X0*%
%TD*%
%TA.AperFunction,SMDPad,CuDef*%
%ADD19RoundRect,0.250000X-0.412500X-0.650000X0.412500X-0.650000X0.412500X0.650000X-0.412500X0.650000X0*%
%TD*%
%TA.AperFunction,SMDPad,CuDef*%
%ADD20RoundRect,0.250000X-0.650000X0.325000X-0.650000X-0.325000X0.650000X-0.325000X0.650000X0.325000X0*%
%TD*%
%TA.AperFunction,ComponentPad*%
%ADD21R,1.308000X1.308000*%
%TD*%
%TA.AperFunction,ComponentPad*%
%ADD22C,1.308000*%
%TD*%
%TA.AperFunction,SMDPad,CuDef*%
%ADD23RoundRect,0.225000X-0.250000X0.225000X-0.250000X-0.225000X0.250000X-0.225000X0.250000X0.225000X0*%
%TD*%
%TA.AperFunction,SMDPad,CuDef*%
%ADD24RoundRect,0.250000X-0.350000X-0.450000X0.350000X-0.450000X0.350000X0.450000X-0.350000X0.450000X0*%
%TD*%
%TA.AperFunction,ViaPad*%
%ADD25C,0.600000*%
%TD*%
G04 APERTURE END LIST*
D10*
%TO.N,HFXIN*%
X169500000Y-102494888D02*
X169500000Y-104492310D01*
X165502666Y-104512885D01*
X165500000Y-103994884D01*
X165497647Y-101996663D01*
X168997648Y-101992536D01*
X169500000Y-102494888D01*
%TA.AperFunction,Conductor*%
G36*
X169500000Y-102494888D02*
G01*
X169500000Y-104492310D01*
X165502666Y-104512885D01*
X165500000Y-103994884D01*
X165497647Y-101996663D01*
X168997648Y-101992536D01*
X169500000Y-102494888D01*
G37*
%TD.AperFunction*%
%TO.N,HFXOUT*%
X163500000Y-108994884D02*
X163000000Y-109994884D01*
X163000000Y-111994884D01*
X162500000Y-112494884D01*
X161500000Y-112494884D01*
X161000000Y-111994884D01*
X161000000Y-106994884D01*
X161500000Y-106494884D01*
X163500000Y-106494884D01*
X163500000Y-108994884D01*
%TA.AperFunction,Conductor*%
G36*
X163500000Y-108994884D02*
G01*
X163000000Y-109994884D01*
X163000000Y-111994884D01*
X162500000Y-112494884D01*
X161500000Y-112494884D01*
X161000000Y-111994884D01*
X161000000Y-106994884D01*
X161500000Y-106494884D01*
X163500000Y-106494884D01*
X163500000Y-108994884D01*
G37*
%TD.AperFunction*%
%TO.N,+5V*%
X150500000Y-86500000D02*
X152000000Y-86500000D01*
X152500000Y-87000000D01*
X152500000Y-87500000D01*
X148500000Y-87500000D01*
X147500000Y-87000000D01*
X146500000Y-87000000D01*
X146000000Y-86500000D01*
X146500000Y-86000000D01*
X150000000Y-86000000D01*
X150500000Y-86500000D01*
%TA.AperFunction,Conductor*%
G36*
X150500000Y-86500000D02*
G01*
X152000000Y-86500000D01*
X152500000Y-87000000D01*
X152500000Y-87500000D01*
X148500000Y-87500000D01*
X147500000Y-87000000D01*
X146500000Y-87000000D01*
X146000000Y-86500000D01*
X146500000Y-86000000D01*
X150000000Y-86000000D01*
X150500000Y-86500000D01*
G37*
%TD.AperFunction*%
%TO.N,GND*%
X166500000Y-106494884D02*
X166500000Y-108494884D01*
X167500000Y-109494884D01*
X167500000Y-111994884D01*
X167000000Y-112494884D01*
X166000000Y-112494884D01*
X166000000Y-109994884D01*
X165500000Y-109494884D01*
X165500000Y-105994884D01*
X166000000Y-105994884D01*
X166500000Y-106494884D01*
%TA.AperFunction,Conductor*%
G36*
X166500000Y-106494884D02*
G01*
X166500000Y-108494884D01*
X167500000Y-109494884D01*
X167500000Y-111994884D01*
X167000000Y-112494884D01*
X166000000Y-112494884D01*
X166000000Y-109994884D01*
X165500000Y-109494884D01*
X165500000Y-105994884D01*
X166000000Y-105994884D01*
X166500000Y-106494884D01*
G37*
%TD.AperFunction*%
X147500000Y-88500000D02*
X147500000Y-89000000D01*
X148000000Y-89500000D01*
X150500000Y-89500000D01*
X151500000Y-88500000D01*
X152500000Y-88500000D01*
X152500000Y-89500000D01*
X151500000Y-89500000D01*
X151000000Y-90000000D01*
X151000000Y-90500000D01*
X150500000Y-91000000D01*
X148000000Y-91000000D01*
X147500000Y-90500000D01*
X147500000Y-90000000D01*
X147000000Y-89500000D01*
X146500000Y-89273453D01*
X146500000Y-88492542D01*
X147500000Y-88500000D01*
%TA.AperFunction,Conductor*%
G36*
X147500000Y-88500000D02*
G01*
X147500000Y-89000000D01*
X148000000Y-89500000D01*
X150500000Y-89500000D01*
X151500000Y-88500000D01*
X152500000Y-88500000D01*
X152500000Y-89500000D01*
X151500000Y-89500000D01*
X151000000Y-90000000D01*
X151000000Y-90500000D01*
X150500000Y-91000000D01*
X148000000Y-91000000D01*
X147500000Y-90500000D01*
X147500000Y-90000000D01*
X147000000Y-89500000D01*
X146500000Y-89273453D01*
X146500000Y-88492542D01*
X147500000Y-88500000D01*
G37*
%TD.AperFunction*%
%TD*%
D11*
%TO.P,H4,1*%
%TO.N,N/C*%
X170500000Y-110500000D03*
%TD*%
%TO.P,H3,1*%
%TO.N,N/C*%
X140000000Y-110500000D03*
%TD*%
%TO.P,H2,1*%
%TO.N,N/C*%
X170500000Y-80000000D03*
%TD*%
%TO.P,H1,1*%
%TO.N,N/C*%
X140000000Y-80000000D03*
%TD*%
D12*
%TO.P,J2,1,Pin_1_1*%
%TO.N,GND*%
X164115000Y-98160000D03*
D13*
%TO.P,J2,2,Pin_2_2*%
%TO.N,+3V3*%
X164115000Y-95620000D03*
%TO.P,J2,3,Pin_3_3*%
%TO.N,NRST*%
X164115000Y-93080000D03*
%TO.P,J2,4,Pin_4_4*%
%TO.N,SWDIO*%
X164115000Y-90540000D03*
%TO.P,J2,5,Pin_5_5*%
%TO.N,SWCLK*%
X164115000Y-88000000D03*
%TD*%
D14*
%TO.P,Y2,1,1_1*%
%TO.N,HFXIN*%
X165500000Y-103844884D03*
%TO.P,Y2,2,G_2*%
%TO.N,GND*%
X165500000Y-107144884D03*
%TO.P,Y2,3,3_3*%
%TO.N,HFXOUT*%
X163500000Y-107144884D03*
%TO.P,Y2,4,G_4*%
%TO.N,GND*%
X163500000Y-103844884D03*
%TD*%
D15*
%TO.P,TP7,1,1_1*%
%TO.N,CH3*%
X166500000Y-76500000D03*
%TD*%
%TO.P,TP5,1,1_1*%
%TO.N,CH1*%
X162500000Y-76500000D03*
%TD*%
%TO.P,TP8,1,1_1*%
%TO.N,CH4*%
X168500000Y-76500000D03*
%TD*%
D16*
%TO.P,BZ1,1,+_1*%
%TO.N,BUZZER_IO*%
X149000000Y-95300000D03*
%TO.P,BZ1,2,-_2*%
%TO.N,GND*%
X149000000Y-106500000D03*
%TD*%
D17*
%TO.P,I2C-R2,1*%
%TO.N,BST_SDA*%
X149000000Y-81500000D03*
%TO.P,I2C-R2,2*%
%TO.N,+3V3*%
X147000000Y-81500000D03*
%TD*%
D18*
%TO.P,SW-C2,1*%
%TO.N,+5V*%
X152000000Y-87137500D03*
%TO.P,SW-C2,2*%
%TO.N,GND*%
X152000000Y-88862500D03*
%TD*%
D19*
%TO.P,CRY-C13,1*%
%TO.N,HFXOUT*%
X162937500Y-111144884D03*
%TO.P,CRY-C13,2*%
%TO.N,GND*%
X166062500Y-111144884D03*
%TD*%
D15*
%TO.P,TP4,1,1_1*%
%TO.N,BST_SDA*%
X148500000Y-76500000D03*
%TD*%
D20*
%TO.P,SW-C3,1*%
%TO.N,+5V*%
X149500000Y-87050000D03*
%TO.P,SW-C3,2*%
%TO.N,GND*%
X149500000Y-90000000D03*
%TD*%
D15*
%TO.P,TP6,1,1_1*%
%TO.N,CH2*%
X164500000Y-76500000D03*
%TD*%
D21*
%TO.P,SW5,1,A_1*%
%TO.N,+5V*%
X140000000Y-90162500D03*
D22*
%TO.P,SW5,2,B_2*%
%TO.N,VDD*%
X140000000Y-87662500D03*
%TO.P,SW5,3,C_3*%
%TO.N,unconnected-(SW5-C-Pad3)*%
X140000000Y-85162500D03*
%TD*%
D19*
%TO.P,CRY-C12,1*%
%TO.N,HFXIN*%
X169437500Y-103494884D03*
%TO.P,CRY-C12,2*%
%TO.N,GND*%
X172562500Y-103494884D03*
%TD*%
D23*
%TO.P,SW-C1,1*%
%TO.N,+5V*%
X147000000Y-86950000D03*
%TO.P,SW-C1,2*%
%TO.N,GND*%
X147000000Y-88500000D03*
%TD*%
D15*
%TO.P,TP2,1,1_1*%
%TO.N,GND*%
X144500000Y-76500000D03*
%TD*%
%TO.P,TP1,1,1_1*%
%TO.N,VDD*%
X142500000Y-76500000D03*
%TD*%
%TO.P,TP3,1,1_1*%
%TO.N,BST_SCL*%
X146500000Y-76500000D03*
%TD*%
D24*
%TO.P,I2C-R1,1*%
%TO.N,BST_SCL*%
X145500000Y-78500000D03*
%TO.P,I2C-R1,2*%
%TO.N,+3V3*%
X147500000Y-78500000D03*
%TD*%
D25*
%TO.N,GND*%
X142000000Y-101000000D03*
X144500000Y-84500000D03*
X170250000Y-99250000D03*
X168500000Y-107000000D03*
X146500000Y-113250000D03*
X148500000Y-99500000D03*
X171000000Y-106500000D03*
X146000000Y-105500000D03*
X173500000Y-94500000D03*
X148000000Y-93000000D03*
X158496000Y-108712000D03*
X143500000Y-105500000D03*
X144600000Y-92000000D03*
%TO.N,+5V*%
X143100000Y-90500000D03*
X145500000Y-87000000D03*
%TO.N,+3V3*%
X139500000Y-95500000D03*
X146500000Y-79756000D03*
X155500000Y-113250000D03*
X164500000Y-82000000D03*
X156000000Y-106500000D03*
X170000000Y-86500000D03*
%TO.N,NRST*%
X155500000Y-105500000D03*
X162000000Y-105894884D03*
X166000000Y-98000000D03*
X149000000Y-104500000D03*
X154500000Y-106500000D03*
X166500000Y-95500000D03*
%TO.N,Net-(U3-BYP)*%
X142500000Y-89500000D03*
X137000000Y-89500000D03*
%TO.N,Net-(IC2-PA2_{slash}_ROSC)*%
X158000000Y-105500000D03*
X162000000Y-105000000D03*
%TO.N,HFXIN*%
X160500000Y-105000000D03*
%TO.N,HFXOUT*%
X160000000Y-106900000D03*
%TO.N,BST_SDA*%
X151500000Y-93500000D03*
X154500000Y-97400000D03*
X152900000Y-86500000D03*
%TO.N,BST_SCL*%
X144000000Y-88500000D03*
X144500000Y-91000000D03*
X150000000Y-103500000D03*
X159100000Y-99000000D03*
X145000000Y-89500000D03*
%TO.N,SPI1_CS0*%
X159000000Y-91500000D03*
X163000000Y-101000000D03*
%TO.N,SPI1_POCI*%
X161065687Y-93065687D03*
X161341715Y-87506814D03*
%TO.N,CH2*%
X160500000Y-92500000D03*
X157174265Y-85825735D03*
X159600000Y-93500000D03*
X159100000Y-97000000D03*
X158400000Y-89500000D03*
%TO.N,CH1*%
X156000000Y-87000000D03*
%TO.N,BUZZER_IO*%
X156500000Y-93500000D03*
%TO.N,BOOT*%
X155600000Y-88500000D03*
X156500000Y-92500000D03*
X164500000Y-81000000D03*
X155500000Y-90500000D03*
%TO.N,SWDIO*%
X161100000Y-89087777D03*
X156400000Y-89500000D03*
%TO.N,SWCLK*%
X154500000Y-91500000D03*
X161243732Y-88300794D03*
%TO.N,Motor1*%
X157000000Y-83000000D03*
X155000000Y-87500000D03*
%TO.N,Motor2*%
X155500000Y-83000000D03*
X153400000Y-93500000D03*
%TO.N,Motor3*%
X149700000Y-93548527D03*
X154600000Y-83000000D03*
%TO.N,C-JST*%
X158000000Y-91500000D03*
X150000000Y-102000000D03*
%TO.N,Motor4*%
X150674265Y-98674265D03*
X157307179Y-91100000D03*
%TO.N,CH3*%
X154500000Y-100500000D03*
%TO.N,CH4*%
X150600000Y-99500000D03*
%TO.N,VDD*%
X153600000Y-79500000D03*
X138788749Y-84130989D03*
X151000000Y-79500000D03*
X142500000Y-82500000D03*
%TD*%
%TO.N,GND*%
D10*
X171000000Y-102000000D02*
X170250000Y-101250000D01*
X170250000Y-101250000D02*
X170250000Y-99250000D01*
X166455000Y-100500000D02*
X164115000Y-98160000D01*
X170250000Y-99250000D02*
X170000000Y-99500000D01*
X171000000Y-102000000D02*
X171500000Y-102000000D01*
X171500000Y-102000000D02*
X172562500Y-103062500D01*
X172562500Y-103062500D02*
X172562500Y-103494884D01*
X170250000Y-99250000D02*
X169000000Y-100500000D01*
X169000000Y-100500000D02*
X166455000Y-100500000D01*
X170250000Y-99250000D02*
X173500000Y-96000000D01*
X173500000Y-96000000D02*
X173500000Y-94500000D01*
X171000000Y-106000000D02*
X172562500Y-104437500D01*
X172562500Y-104437500D02*
X172562500Y-103494884D01*
%TO.N,Net-(U3-BYP)*%
X138000000Y-91000000D02*
X139000000Y-92000000D01*
X137000000Y-89500000D02*
X137000000Y-89651470D01*
X137000000Y-89651470D02*
X138000000Y-90651470D01*
X138000000Y-90651470D02*
X138000000Y-91000000D01*
X139000000Y-92000000D02*
X141000000Y-92000000D01*
X141000000Y-92000000D02*
X142500000Y-90500000D01*
X142500000Y-90500000D02*
X142500000Y-89500000D01*
%TO.N,VDD*%
X138788749Y-84130989D02*
X138919738Y-84000000D01*
X138919738Y-84000000D02*
X139500000Y-84000000D01*
X139500000Y-84000000D02*
X140000000Y-83500000D01*
X140000000Y-83500000D02*
X142000000Y-83500000D01*
%TO.N,CH3*%
X166500000Y-76500000D02*
X166500000Y-80434314D01*
X151000000Y-100000000D02*
X153340000Y-100000000D01*
X170900000Y-86448529D02*
X170248529Y-87100000D01*
X149400000Y-103900000D02*
X149400000Y-101165686D01*
X170248529Y-87100000D02*
X165600000Y-87100000D01*
X155065686Y-104100000D02*
X149600000Y-104100000D01*
X166500000Y-80434314D02*
X170900000Y-84834314D01*
X149400000Y-101165686D02*
X149834314Y-101165686D01*
X149834314Y-101165686D02*
X151000000Y-100000000D01*
X163000000Y-86500000D02*
X162500000Y-87000000D01*
X162500000Y-89500000D02*
X162000000Y-90000000D01*
X162500000Y-87000000D02*
X162500000Y-89500000D01*
X153840000Y-100500000D02*
X154500000Y-100500000D01*
X157565686Y-101600000D02*
X155065686Y-104100000D01*
X165000000Y-86500000D02*
X163000000Y-86500000D01*
X162000000Y-99151471D02*
X163600000Y-100751471D01*
X163600000Y-100751471D02*
X163600000Y-101248529D01*
X162000000Y-90000000D02*
X162000000Y-99151471D01*
X163600000Y-101248529D02*
X163248529Y-101600000D01*
X163248529Y-101600000D02*
X157565686Y-101600000D01*
X149600000Y-104100000D02*
X149400000Y-103900000D01*
X165600000Y-87100000D02*
X165000000Y-86500000D01*
X153340000Y-100000000D02*
X153840000Y-100500000D01*
X170900000Y-84834314D02*
X170900000Y-86448529D01*
%TO.N,SPI1_POCI*%
X161065687Y-93065687D02*
X161500000Y-92631374D01*
X161500000Y-92631374D02*
X161500000Y-89536306D01*
X161500000Y-89536306D02*
X161843732Y-89192574D01*
X161843732Y-89192574D02*
X161843732Y-88008831D01*
X161843732Y-88008831D02*
X161341715Y-87506814D01*
X161341715Y-87506814D02*
X161448529Y-87400000D01*
%TO.N,SWDIO*%
X161100000Y-89087777D02*
X161087777Y-89087777D01*
X161087777Y-89087777D02*
X160600000Y-88600000D01*
X160600000Y-88600000D02*
X157300000Y-88600000D01*
X157300000Y-88600000D02*
X156400000Y-89500000D01*
%TO.N,SWCLK*%
X161243732Y-88300794D02*
X161243732Y-88243732D01*
X161243732Y-88243732D02*
X161000000Y-88000000D01*
X161000000Y-88000000D02*
X157000000Y-88000000D01*
X157000000Y-88000000D02*
X154500000Y-90500000D01*
X154500000Y-90500000D02*
X154500000Y-91500000D01*
%TO.N,BST_SCL*%
X146500000Y-76500000D02*
X145500000Y-77500000D01*
X145500000Y-77500000D02*
X145500000Y-78500000D01*
%TO.N,+3V3*%
X147000000Y-81500000D02*
X147000000Y-80256000D01*
X147000000Y-80256000D02*
X146500000Y-79756000D01*
%TO.N,BST_SDA*%
X149000000Y-83500000D02*
X149500000Y-84000000D01*
X149000000Y-81500000D02*
X149000000Y-83500000D01*
X148500000Y-76500000D02*
X149000000Y-77000000D01*
X149000000Y-77000000D02*
X149000000Y-81500000D01*
%TO.N,+3V3*%
X146500000Y-79756000D02*
X146918000Y-79756000D01*
X146918000Y-79756000D02*
X147500000Y-79174000D01*
X147500000Y-79174000D02*
X147500000Y-78500000D01*
%TO.N,BST_SCL*%
X145500000Y-84500000D02*
X145500000Y-78500000D01*
%TO.N,GND*%
X144500000Y-77500000D02*
X143500000Y-78500000D01*
X144500000Y-76500000D02*
X144500000Y-77500000D01*
X143500000Y-78500000D02*
X143500000Y-83500000D01*
X143500000Y-83500000D02*
X144000000Y-84000000D01*
%TO.N,VDD*%
X142500000Y-82500000D02*
X143000000Y-82000000D01*
X143000000Y-82000000D02*
X143000000Y-78500000D01*
X142500000Y-78000000D02*
X142500000Y-76500000D01*
X143000000Y-78500000D02*
X142500000Y-78000000D01*
%TO.N,GND*%
X165500000Y-107144884D02*
X168355116Y-107144884D01*
X149000000Y-106500000D02*
X147000000Y-106500000D01*
X166062500Y-113437500D02*
X166062500Y-111144884D01*
X144600000Y-92000000D02*
X144500000Y-92100000D01*
X171000000Y-106500000D02*
X171000000Y-106000000D01*
X159500000Y-114000000D02*
X159750000Y-113750000D01*
X159500000Y-114000000D02*
X165500000Y-114000000D01*
X147000000Y-106500000D02*
X146000000Y-105500000D01*
X159750000Y-113750000D02*
X159750000Y-109966000D01*
X148246271Y-91000000D02*
X149500000Y-89746271D01*
X165500000Y-107144884D02*
X165500000Y-106494884D01*
X168355116Y-107144884D02*
X168500000Y-107000000D01*
X142000000Y-107000000D02*
X142000000Y-106500000D01*
X145600000Y-91000000D02*
X148246271Y-91000000D01*
X143500000Y-105500000D02*
X143000000Y-105500000D01*
X159750000Y-109966000D02*
X158496000Y-108712000D01*
X148500000Y-99500000D02*
X143500000Y-99500000D01*
X144000000Y-84000000D02*
X144500000Y-84500000D01*
X144500000Y-92100000D02*
X144500000Y-92500000D01*
X144600000Y-92000000D02*
X145600000Y-91000000D01*
X163500000Y-104494884D02*
X165500000Y-106494884D01*
X144500000Y-92500000D02*
X145000000Y-93000000D01*
X146500000Y-113250000D02*
X146500000Y-113500000D01*
X147000000Y-114000000D02*
X159500000Y-114000000D01*
X163500000Y-103844884D02*
X163500000Y-104494884D01*
X146500000Y-113500000D02*
X147000000Y-114000000D01*
X143500000Y-99500000D02*
X142000000Y-101000000D01*
X145000000Y-93000000D02*
X148000000Y-93000000D01*
X142000000Y-101000000D02*
X142000000Y-106500000D01*
X143000000Y-105500000D02*
X142000000Y-106500000D01*
X146500000Y-113250000D02*
X146500000Y-111500000D01*
X146500000Y-111500000D02*
X142000000Y-107000000D01*
X165500000Y-114000000D02*
X166062500Y-113437500D01*
%TO.N,+5V*%
X143100000Y-90500000D02*
X143500000Y-90100000D01*
X145500000Y-87000000D02*
X146000000Y-87500000D01*
X142748529Y-88900000D02*
X141100000Y-88900000D01*
X148000000Y-86750000D02*
X147800000Y-86950000D01*
X143500000Y-90100000D02*
X143500000Y-90000000D01*
X146750000Y-86750000D02*
X148000000Y-86750000D01*
X143500000Y-90000000D02*
X143500000Y-89651471D01*
X147800000Y-86950000D02*
X147000000Y-86950000D01*
X141100000Y-88900000D02*
X140000000Y-90000000D01*
X146000000Y-87500000D02*
X146750000Y-86750000D01*
X143500000Y-89651471D02*
X142748529Y-88900000D01*
X140000000Y-90000000D02*
X140000000Y-90162500D01*
X143500000Y-90000000D02*
X145250000Y-88250000D01*
X145250000Y-88250000D02*
X146000000Y-87500000D01*
%TO.N,+3V3*%
X155500000Y-108000000D02*
X155500000Y-107000000D01*
X165000000Y-82500000D02*
X164500000Y-82000000D01*
X144500000Y-106500000D02*
X144500000Y-105500000D01*
X144500000Y-105500000D02*
X149500000Y-100500000D01*
X142500000Y-98500000D02*
X139500000Y-95500000D01*
X170000000Y-86500000D02*
X170500000Y-86000000D01*
X151250000Y-113250000D02*
X144500000Y-106500000D01*
X149500000Y-99000000D02*
X149000000Y-98500000D01*
X170500000Y-85000000D02*
X168000000Y-82500000D01*
X149000000Y-98500000D02*
X142500000Y-98500000D01*
X155500000Y-108000000D02*
X155500000Y-113250000D01*
X149500000Y-100500000D02*
X149500000Y-99000000D01*
X155500000Y-113250000D02*
X151250000Y-113250000D01*
X170500000Y-86000000D02*
X170500000Y-85000000D01*
X168000000Y-82500000D02*
X165000000Y-82500000D01*
X155500000Y-107000000D02*
X156000000Y-106500000D01*
%TO.N,NRST*%
X159800000Y-106251471D02*
X156600000Y-106251471D01*
X162000000Y-105894884D02*
X161894884Y-106000000D01*
X166000000Y-96000000D02*
X166000000Y-98000000D01*
X161894884Y-106000000D02*
X160051471Y-106000000D01*
X155848529Y-105500000D02*
X155500000Y-105500000D01*
X160051471Y-106000000D02*
X159800000Y-106251471D01*
X166500000Y-95500000D02*
X166000000Y-96000000D01*
X156600000Y-106251471D02*
X155848529Y-105500000D01*
X149000000Y-104500000D02*
X152500000Y-104500000D01*
X152500000Y-104500000D02*
X154500000Y-106500000D01*
%TO.N,Net-(IC2-PA2_{slash}_ROSC)*%
X158100000Y-105600000D02*
X158000000Y-105500000D01*
X162000000Y-105000000D02*
X161400000Y-105600000D01*
X161400000Y-105600000D02*
X158100000Y-105600000D01*
%TO.N,HFXIN*%
X161000000Y-102000000D02*
X160500000Y-102500000D01*
X160500000Y-102500000D02*
X160500000Y-105000000D01*
X165000000Y-102000000D02*
X161000000Y-102000000D01*
X165500000Y-102500000D02*
X165000000Y-102000000D01*
X165500000Y-103844884D02*
X165500000Y-102500000D01*
%TO.N,HFXOUT*%
X160900000Y-106900000D02*
X161144884Y-107144884D01*
X161144884Y-107144884D02*
X163500000Y-107144884D01*
X160000000Y-106900000D02*
X160900000Y-106900000D01*
%TO.N,BST_SDA*%
X151500000Y-93500000D02*
X154500000Y-96500000D01*
X154500000Y-96500000D02*
X154500000Y-97400000D01*
X149500000Y-84000000D02*
X150400000Y-84000000D01*
X150400000Y-84000000D02*
X152900000Y-86500000D01*
%TO.N,BST_SCL*%
X145000000Y-90500000D02*
X144500000Y-91000000D01*
X159100000Y-99000000D02*
X159100000Y-99500000D01*
X144000000Y-86000000D02*
X144000000Y-88500000D01*
X145000000Y-89500000D02*
X145000000Y-90500000D01*
X159100000Y-99500000D02*
X155100000Y-103500000D01*
X155100000Y-103500000D02*
X150000000Y-103500000D01*
X145500000Y-84500000D02*
X144000000Y-86000000D01*
%TO.N,SPI1_CS0*%
X161500000Y-99500000D02*
X163000000Y-101000000D01*
X161500000Y-94500000D02*
X161500000Y-99500000D01*
X159000000Y-92000000D02*
X161500000Y-94500000D01*
X159000000Y-91500000D02*
X159000000Y-92000000D01*
%TO.N,CH2*%
X164500000Y-76500000D02*
X164500000Y-77500000D01*
X158500000Y-81065686D02*
X158500000Y-84500000D01*
X164500000Y-77500000D02*
X164000000Y-78000000D01*
X159100000Y-97000000D02*
X159400000Y-97000000D01*
X159400000Y-97000000D02*
X159500000Y-96900000D01*
X161565686Y-78000000D02*
X158500000Y-81065686D01*
X158400000Y-89500000D02*
X160500000Y-91600000D01*
X160500000Y-91600000D02*
X160500000Y-92500000D01*
X164000000Y-78000000D02*
X161565686Y-78000000D01*
X159500000Y-93600000D02*
X159600000Y-93500000D01*
X159500000Y-96900000D02*
X159500000Y-93600000D01*
X158500000Y-84500000D02*
X157174265Y-85825735D01*
%TO.N,CH1*%
X158000000Y-81000000D02*
X158000000Y-84000000D01*
X162500000Y-76500000D02*
X158000000Y-81000000D01*
X155500000Y-86500000D02*
X156000000Y-87000000D01*
X158000000Y-84000000D02*
X155500000Y-86500000D01*
%TO.N,BUZZER_IO*%
X149000000Y-95300000D02*
X149000000Y-97000000D01*
X149000000Y-97000000D02*
X150000000Y-98000000D01*
X150000000Y-98000000D02*
X155500000Y-98000000D01*
X155500000Y-98000000D02*
X156500000Y-97000000D01*
X156500000Y-97000000D02*
X156500000Y-93500000D01*
%TO.N,BOOT*%
X155600000Y-92500000D02*
X155500000Y-92400000D01*
X156500000Y-92500000D02*
X155600000Y-92500000D01*
X160500000Y-82000000D02*
X161500000Y-81000000D01*
X160500000Y-83500000D02*
X160500000Y-82000000D01*
X155500000Y-92400000D02*
X155500000Y-90500000D01*
X161500000Y-81000000D02*
X164500000Y-81000000D01*
X155600000Y-88500000D02*
X155600000Y-88400000D01*
X155600000Y-88400000D02*
X160500000Y-83500000D01*
%TO.N,SWCLK*%
X154500000Y-91500000D02*
X154600000Y-91400000D01*
%TO.N,Motor1*%
X155000000Y-85000000D02*
X155000000Y-87500000D01*
X157000000Y-83000000D02*
X155000000Y-85000000D01*
%TO.N,Motor2*%
X153500000Y-90500000D02*
X153500000Y-93400000D01*
X153500000Y-93400000D02*
X153400000Y-93500000D01*
X154100000Y-89900000D02*
X153500000Y-90500000D01*
X154100000Y-84400000D02*
X154100000Y-89900000D01*
X155500000Y-83000000D02*
X154100000Y-84400000D01*
%TO.N,Motor3*%
X153500000Y-89500000D02*
X153500000Y-84000000D01*
X149700000Y-93548527D02*
X149700000Y-93300000D01*
X149700000Y-93300000D02*
X153500000Y-89500000D01*
X154500000Y-83000000D02*
X154600000Y-83000000D01*
X153500000Y-84000000D02*
X154500000Y-83000000D01*
%TO.N,C-JST*%
X156000000Y-102000000D02*
X150000000Y-102000000D01*
X158000000Y-91500000D02*
X158000000Y-92000000D01*
X158500000Y-99500000D02*
X156000000Y-102000000D01*
X158500000Y-92500000D02*
X158500000Y-99500000D01*
X158000000Y-92000000D02*
X158500000Y-92500000D01*
%TO.N,Motor4*%
X157500000Y-92192821D02*
X157500000Y-97000000D01*
X155000000Y-99500000D02*
X151500000Y-99500000D01*
X157307179Y-92000000D02*
X157500000Y-92192821D01*
X151500000Y-99500000D02*
X150674265Y-98674265D01*
X157307179Y-91100000D02*
X157307179Y-92000000D01*
X157500000Y-97000000D02*
X155000000Y-99500000D01*
%TO.N,CH4*%
X138900000Y-104465686D02*
X138900000Y-95251471D01*
X174100000Y-111400000D02*
X171100000Y-114400000D01*
X139251471Y-94900000D02*
X143400000Y-94900000D01*
X168500000Y-76500000D02*
X171500000Y-76500000D01*
X143400000Y-94900000D02*
X146600000Y-98100000D01*
X149200000Y-98100000D02*
X150600000Y-99500000D01*
X171500000Y-76500000D02*
X174100000Y-79100000D01*
X174100000Y-79100000D02*
X174100000Y-111400000D01*
X146600000Y-98100000D02*
X149200000Y-98100000D01*
X145900000Y-113498529D02*
X145900000Y-111465686D01*
X171100000Y-114400000D02*
X146801471Y-114400000D01*
X146801471Y-114400000D02*
X145900000Y-113498529D01*
X145900000Y-111465686D02*
X138900000Y-104465686D01*
X138900000Y-95251471D02*
X139251471Y-94900000D01*
%TO.N,VDD*%
X151000000Y-79500000D02*
X153600000Y-79500000D01*
X142000000Y-83000000D02*
X142000000Y-83500000D01*
X142500000Y-82500000D02*
X142000000Y-83000000D01*
X142000000Y-83500000D02*
X142000000Y-85662500D01*
X142000000Y-85662500D02*
X140000000Y-87662500D01*
%TD*%
M02*
