%TF.GenerationSoftware,KiCad,Pcbnew,10.0.1*%
%TF.CreationDate,2026-04-25T00:08:49-05:00*%
%TF.ProjectId,REALdronePCB,5245414c-6472-46f6-9e65-5043422e6b69,rev?*%
%TF.SameCoordinates,Original*%
%TF.FileFunction,Legend,Top*%
%TF.FilePolarity,Positive*%
%FSLAX46Y46*%
G04 Gerber Fmt 4.6, Leading zero omitted, Abs format (unit mm)*
G04 Created by KiCad (PCBNEW 10.0.1) date 2026-04-25 00:08:49*
%MOMM*%
%LPD*%
G01*
G04 APERTURE LIST*
%ADD10C,0.100000*%
%ADD11C,0.080000*%
%ADD12C,0.254000*%
%ADD13C,0.150000*%
%ADD14C,0.120000*%
%ADD15C,0.152400*%
%ADD16C,0.200000*%
%ADD17C,0.000000*%
G04 APERTURE END LIST*
D10*
X172738095Y-108457419D02*
X172738095Y-107457419D01*
X172738095Y-107933609D02*
X173309523Y-107933609D01*
X173309523Y-108457419D02*
X173309523Y-107457419D01*
X174214285Y-107790752D02*
X174214285Y-108457419D01*
X173976190Y-107409800D02*
X173738095Y-108124085D01*
X173738095Y-108124085D02*
X174357142Y-108124085D01*
D11*
X161885714Y-114680887D02*
X161752381Y-114490411D01*
X161657143Y-114680887D02*
X161657143Y-114280887D01*
X161657143Y-114280887D02*
X161809524Y-114280887D01*
X161809524Y-114280887D02*
X161847619Y-114299935D01*
X161847619Y-114299935D02*
X161866666Y-114318982D01*
X161866666Y-114318982D02*
X161885714Y-114357078D01*
X161885714Y-114357078D02*
X161885714Y-114414220D01*
X161885714Y-114414220D02*
X161866666Y-114452316D01*
X161866666Y-114452316D02*
X161847619Y-114471363D01*
X161847619Y-114471363D02*
X161809524Y-114490411D01*
X161809524Y-114490411D02*
X161657143Y-114490411D01*
X162133333Y-114280887D02*
X162209524Y-114280887D01*
X162209524Y-114280887D02*
X162247619Y-114299935D01*
X162247619Y-114299935D02*
X162285714Y-114338030D01*
X162285714Y-114338030D02*
X162304762Y-114414220D01*
X162304762Y-114414220D02*
X162304762Y-114547554D01*
X162304762Y-114547554D02*
X162285714Y-114623744D01*
X162285714Y-114623744D02*
X162247619Y-114661840D01*
X162247619Y-114661840D02*
X162209524Y-114680887D01*
X162209524Y-114680887D02*
X162133333Y-114680887D01*
X162133333Y-114680887D02*
X162095238Y-114661840D01*
X162095238Y-114661840D02*
X162057143Y-114623744D01*
X162057143Y-114623744D02*
X162038095Y-114547554D01*
X162038095Y-114547554D02*
X162038095Y-114414220D01*
X162038095Y-114414220D02*
X162057143Y-114338030D01*
X162057143Y-114338030D02*
X162095238Y-114299935D01*
X162095238Y-114299935D02*
X162133333Y-114280887D01*
X162457143Y-114661840D02*
X162514286Y-114680887D01*
X162514286Y-114680887D02*
X162609524Y-114680887D01*
X162609524Y-114680887D02*
X162647619Y-114661840D01*
X162647619Y-114661840D02*
X162666667Y-114642792D01*
X162666667Y-114642792D02*
X162685714Y-114604697D01*
X162685714Y-114604697D02*
X162685714Y-114566601D01*
X162685714Y-114566601D02*
X162666667Y-114528506D01*
X162666667Y-114528506D02*
X162647619Y-114509459D01*
X162647619Y-114509459D02*
X162609524Y-114490411D01*
X162609524Y-114490411D02*
X162533333Y-114471363D01*
X162533333Y-114471363D02*
X162495238Y-114452316D01*
X162495238Y-114452316D02*
X162476191Y-114433268D01*
X162476191Y-114433268D02*
X162457143Y-114395173D01*
X162457143Y-114395173D02*
X162457143Y-114357078D01*
X162457143Y-114357078D02*
X162476191Y-114318982D01*
X162476191Y-114318982D02*
X162495238Y-114299935D01*
X162495238Y-114299935D02*
X162533333Y-114280887D01*
X162533333Y-114280887D02*
X162628572Y-114280887D01*
X162628572Y-114280887D02*
X162685714Y-114299935D01*
X163085714Y-114642792D02*
X163066666Y-114661840D01*
X163066666Y-114661840D02*
X163009524Y-114680887D01*
X163009524Y-114680887D02*
X162971428Y-114680887D01*
X162971428Y-114680887D02*
X162914285Y-114661840D01*
X162914285Y-114661840D02*
X162876190Y-114623744D01*
X162876190Y-114623744D02*
X162857143Y-114585649D01*
X162857143Y-114585649D02*
X162838095Y-114509459D01*
X162838095Y-114509459D02*
X162838095Y-114452316D01*
X162838095Y-114452316D02*
X162857143Y-114376125D01*
X162857143Y-114376125D02*
X162876190Y-114338030D01*
X162876190Y-114338030D02*
X162914285Y-114299935D01*
X162914285Y-114299935D02*
X162971428Y-114280887D01*
X162971428Y-114280887D02*
X163009524Y-114280887D01*
X163009524Y-114280887D02*
X163066666Y-114299935D01*
X163066666Y-114299935D02*
X163085714Y-114318982D01*
X163257143Y-114528506D02*
X163561905Y-114528506D01*
X163980952Y-114680887D02*
X163847619Y-114490411D01*
X163752381Y-114680887D02*
X163752381Y-114280887D01*
X163752381Y-114280887D02*
X163904762Y-114280887D01*
X163904762Y-114280887D02*
X163942857Y-114299935D01*
X163942857Y-114299935D02*
X163961904Y-114318982D01*
X163961904Y-114318982D02*
X163980952Y-114357078D01*
X163980952Y-114357078D02*
X163980952Y-114414220D01*
X163980952Y-114414220D02*
X163961904Y-114452316D01*
X163961904Y-114452316D02*
X163942857Y-114471363D01*
X163942857Y-114471363D02*
X163904762Y-114490411D01*
X163904762Y-114490411D02*
X163752381Y-114490411D01*
X164323809Y-114280887D02*
X164247619Y-114280887D01*
X164247619Y-114280887D02*
X164209523Y-114299935D01*
X164209523Y-114299935D02*
X164190476Y-114318982D01*
X164190476Y-114318982D02*
X164152381Y-114376125D01*
X164152381Y-114376125D02*
X164133333Y-114452316D01*
X164133333Y-114452316D02*
X164133333Y-114604697D01*
X164133333Y-114604697D02*
X164152381Y-114642792D01*
X164152381Y-114642792D02*
X164171428Y-114661840D01*
X164171428Y-114661840D02*
X164209523Y-114680887D01*
X164209523Y-114680887D02*
X164285714Y-114680887D01*
X164285714Y-114680887D02*
X164323809Y-114661840D01*
X164323809Y-114661840D02*
X164342857Y-114642792D01*
X164342857Y-114642792D02*
X164361904Y-114604697D01*
X164361904Y-114604697D02*
X164361904Y-114509459D01*
X164361904Y-114509459D02*
X164342857Y-114471363D01*
X164342857Y-114471363D02*
X164323809Y-114452316D01*
X164323809Y-114452316D02*
X164285714Y-114433268D01*
X164285714Y-114433268D02*
X164209523Y-114433268D01*
X164209523Y-114433268D02*
X164171428Y-114452316D01*
X164171428Y-114452316D02*
X164152381Y-114471363D01*
X164152381Y-114471363D02*
X164133333Y-114509459D01*
X153680887Y-89295237D02*
X153490411Y-89428570D01*
X153680887Y-89523808D02*
X153280887Y-89523808D01*
X153280887Y-89523808D02*
X153280887Y-89371427D01*
X153280887Y-89371427D02*
X153299935Y-89333332D01*
X153299935Y-89333332D02*
X153318982Y-89314285D01*
X153318982Y-89314285D02*
X153357078Y-89295237D01*
X153357078Y-89295237D02*
X153414220Y-89295237D01*
X153414220Y-89295237D02*
X153452316Y-89314285D01*
X153452316Y-89314285D02*
X153471363Y-89333332D01*
X153471363Y-89333332D02*
X153490411Y-89371427D01*
X153490411Y-89371427D02*
X153490411Y-89523808D01*
X153471363Y-89123808D02*
X153471363Y-88990475D01*
X153680887Y-88933332D02*
X153680887Y-89123808D01*
X153680887Y-89123808D02*
X153280887Y-89123808D01*
X153280887Y-89123808D02*
X153280887Y-88933332D01*
X153299935Y-88552380D02*
X153280887Y-88590475D01*
X153280887Y-88590475D02*
X153280887Y-88647618D01*
X153280887Y-88647618D02*
X153299935Y-88704761D01*
X153299935Y-88704761D02*
X153338030Y-88742856D01*
X153338030Y-88742856D02*
X153376125Y-88761903D01*
X153376125Y-88761903D02*
X153452316Y-88780951D01*
X153452316Y-88780951D02*
X153509459Y-88780951D01*
X153509459Y-88780951D02*
X153585649Y-88761903D01*
X153585649Y-88761903D02*
X153623744Y-88742856D01*
X153623744Y-88742856D02*
X153661840Y-88704761D01*
X153661840Y-88704761D02*
X153680887Y-88647618D01*
X153680887Y-88647618D02*
X153680887Y-88609522D01*
X153680887Y-88609522D02*
X153661840Y-88552380D01*
X153661840Y-88552380D02*
X153642792Y-88533332D01*
X153642792Y-88533332D02*
X153509459Y-88533332D01*
X153509459Y-88533332D02*
X153509459Y-88609522D01*
X153280887Y-88361903D02*
X153604697Y-88361903D01*
X153604697Y-88361903D02*
X153642792Y-88342856D01*
X153642792Y-88342856D02*
X153661840Y-88323808D01*
X153661840Y-88323808D02*
X153680887Y-88285713D01*
X153680887Y-88285713D02*
X153680887Y-88209522D01*
X153680887Y-88209522D02*
X153661840Y-88171427D01*
X153661840Y-88171427D02*
X153642792Y-88152380D01*
X153642792Y-88152380D02*
X153604697Y-88133332D01*
X153604697Y-88133332D02*
X153280887Y-88133332D01*
X153528506Y-87942855D02*
X153528506Y-87638094D01*
X153642792Y-87219046D02*
X153661840Y-87238094D01*
X153661840Y-87238094D02*
X153680887Y-87295236D01*
X153680887Y-87295236D02*
X153680887Y-87333332D01*
X153680887Y-87333332D02*
X153661840Y-87390475D01*
X153661840Y-87390475D02*
X153623744Y-87428570D01*
X153623744Y-87428570D02*
X153585649Y-87447617D01*
X153585649Y-87447617D02*
X153509459Y-87466665D01*
X153509459Y-87466665D02*
X153452316Y-87466665D01*
X153452316Y-87466665D02*
X153376125Y-87447617D01*
X153376125Y-87447617D02*
X153338030Y-87428570D01*
X153338030Y-87428570D02*
X153299935Y-87390475D01*
X153299935Y-87390475D02*
X153280887Y-87333332D01*
X153280887Y-87333332D02*
X153280887Y-87295236D01*
X153280887Y-87295236D02*
X153299935Y-87238094D01*
X153299935Y-87238094D02*
X153318982Y-87219046D01*
X153680887Y-86838094D02*
X153680887Y-87066665D01*
X153680887Y-86952379D02*
X153280887Y-86952379D01*
X153280887Y-86952379D02*
X153338030Y-86990475D01*
X153338030Y-86990475D02*
X153376125Y-87028570D01*
X153376125Y-87028570D02*
X153395173Y-87066665D01*
X153680887Y-86457142D02*
X153680887Y-86685713D01*
X153680887Y-86571427D02*
X153280887Y-86571427D01*
X153280887Y-86571427D02*
X153338030Y-86609523D01*
X153338030Y-86609523D02*
X153376125Y-86647618D01*
X153376125Y-86647618D02*
X153395173Y-86685713D01*
X158638096Y-108030887D02*
X158771429Y-108430887D01*
X158771429Y-108430887D02*
X158904762Y-108030887D01*
X159038096Y-108430887D02*
X159038096Y-108030887D01*
X159038096Y-108030887D02*
X159133334Y-108030887D01*
X159133334Y-108030887D02*
X159190477Y-108049935D01*
X159190477Y-108049935D02*
X159228572Y-108088030D01*
X159228572Y-108088030D02*
X159247619Y-108126125D01*
X159247619Y-108126125D02*
X159266667Y-108202316D01*
X159266667Y-108202316D02*
X159266667Y-108259459D01*
X159266667Y-108259459D02*
X159247619Y-108335649D01*
X159247619Y-108335649D02*
X159228572Y-108373744D01*
X159228572Y-108373744D02*
X159190477Y-108411840D01*
X159190477Y-108411840D02*
X159133334Y-108430887D01*
X159133334Y-108430887D02*
X159038096Y-108430887D01*
X159438096Y-108430887D02*
X159438096Y-108030887D01*
X159438096Y-108030887D02*
X159533334Y-108030887D01*
X159533334Y-108030887D02*
X159590477Y-108049935D01*
X159590477Y-108049935D02*
X159628572Y-108088030D01*
X159628572Y-108088030D02*
X159647619Y-108126125D01*
X159647619Y-108126125D02*
X159666667Y-108202316D01*
X159666667Y-108202316D02*
X159666667Y-108259459D01*
X159666667Y-108259459D02*
X159647619Y-108335649D01*
X159647619Y-108335649D02*
X159628572Y-108373744D01*
X159628572Y-108373744D02*
X159590477Y-108411840D01*
X159590477Y-108411840D02*
X159533334Y-108430887D01*
X159533334Y-108430887D02*
X159438096Y-108430887D01*
X159838096Y-108278506D02*
X160142858Y-108278506D01*
X160561905Y-108392792D02*
X160542857Y-108411840D01*
X160542857Y-108411840D02*
X160485715Y-108430887D01*
X160485715Y-108430887D02*
X160447619Y-108430887D01*
X160447619Y-108430887D02*
X160390476Y-108411840D01*
X160390476Y-108411840D02*
X160352381Y-108373744D01*
X160352381Y-108373744D02*
X160333334Y-108335649D01*
X160333334Y-108335649D02*
X160314286Y-108259459D01*
X160314286Y-108259459D02*
X160314286Y-108202316D01*
X160314286Y-108202316D02*
X160333334Y-108126125D01*
X160333334Y-108126125D02*
X160352381Y-108088030D01*
X160352381Y-108088030D02*
X160390476Y-108049935D01*
X160390476Y-108049935D02*
X160447619Y-108030887D01*
X160447619Y-108030887D02*
X160485715Y-108030887D01*
X160485715Y-108030887D02*
X160542857Y-108049935D01*
X160542857Y-108049935D02*
X160561905Y-108068982D01*
X160942857Y-108430887D02*
X160714286Y-108430887D01*
X160828572Y-108430887D02*
X160828572Y-108030887D01*
X160828572Y-108030887D02*
X160790476Y-108088030D01*
X160790476Y-108088030D02*
X160752381Y-108126125D01*
X160752381Y-108126125D02*
X160714286Y-108145173D01*
X161076190Y-108030887D02*
X161342857Y-108030887D01*
X161342857Y-108030887D02*
X161171428Y-108430887D01*
X144466667Y-104161840D02*
X144523810Y-104180887D01*
X144523810Y-104180887D02*
X144619048Y-104180887D01*
X144619048Y-104180887D02*
X144657143Y-104161840D01*
X144657143Y-104161840D02*
X144676191Y-104142792D01*
X144676191Y-104142792D02*
X144695238Y-104104697D01*
X144695238Y-104104697D02*
X144695238Y-104066601D01*
X144695238Y-104066601D02*
X144676191Y-104028506D01*
X144676191Y-104028506D02*
X144657143Y-104009459D01*
X144657143Y-104009459D02*
X144619048Y-103990411D01*
X144619048Y-103990411D02*
X144542857Y-103971363D01*
X144542857Y-103971363D02*
X144504762Y-103952316D01*
X144504762Y-103952316D02*
X144485715Y-103933268D01*
X144485715Y-103933268D02*
X144466667Y-103895173D01*
X144466667Y-103895173D02*
X144466667Y-103857078D01*
X144466667Y-103857078D02*
X144485715Y-103818982D01*
X144485715Y-103818982D02*
X144504762Y-103799935D01*
X144504762Y-103799935D02*
X144542857Y-103780887D01*
X144542857Y-103780887D02*
X144638096Y-103780887D01*
X144638096Y-103780887D02*
X144695238Y-103799935D01*
X144828571Y-103780887D02*
X144923809Y-104180887D01*
X144923809Y-104180887D02*
X145000000Y-103895173D01*
X145000000Y-103895173D02*
X145076190Y-104180887D01*
X145076190Y-104180887D02*
X145171429Y-103780887D01*
X145285714Y-103780887D02*
X145552381Y-103780887D01*
X145552381Y-103780887D02*
X145380952Y-104180887D01*
X138285714Y-99180887D02*
X138152381Y-98990411D01*
X138057143Y-99180887D02*
X138057143Y-98780887D01*
X138057143Y-98780887D02*
X138209524Y-98780887D01*
X138209524Y-98780887D02*
X138247619Y-98799935D01*
X138247619Y-98799935D02*
X138266666Y-98818982D01*
X138266666Y-98818982D02*
X138285714Y-98857078D01*
X138285714Y-98857078D02*
X138285714Y-98914220D01*
X138285714Y-98914220D02*
X138266666Y-98952316D01*
X138266666Y-98952316D02*
X138247619Y-98971363D01*
X138247619Y-98971363D02*
X138209524Y-98990411D01*
X138209524Y-98990411D02*
X138057143Y-98990411D01*
X138685714Y-99142792D02*
X138666666Y-99161840D01*
X138666666Y-99161840D02*
X138609524Y-99180887D01*
X138609524Y-99180887D02*
X138571428Y-99180887D01*
X138571428Y-99180887D02*
X138514285Y-99161840D01*
X138514285Y-99161840D02*
X138476190Y-99123744D01*
X138476190Y-99123744D02*
X138457143Y-99085649D01*
X138457143Y-99085649D02*
X138438095Y-99009459D01*
X138438095Y-99009459D02*
X138438095Y-98952316D01*
X138438095Y-98952316D02*
X138457143Y-98876125D01*
X138457143Y-98876125D02*
X138476190Y-98838030D01*
X138476190Y-98838030D02*
X138514285Y-98799935D01*
X138514285Y-98799935D02*
X138571428Y-98780887D01*
X138571428Y-98780887D02*
X138609524Y-98780887D01*
X138609524Y-98780887D02*
X138666666Y-98799935D01*
X138666666Y-98799935D02*
X138685714Y-98818982D01*
X138857143Y-99028506D02*
X139161905Y-99028506D01*
X139580952Y-99142792D02*
X139561904Y-99161840D01*
X139561904Y-99161840D02*
X139504762Y-99180887D01*
X139504762Y-99180887D02*
X139466666Y-99180887D01*
X139466666Y-99180887D02*
X139409523Y-99161840D01*
X139409523Y-99161840D02*
X139371428Y-99123744D01*
X139371428Y-99123744D02*
X139352381Y-99085649D01*
X139352381Y-99085649D02*
X139333333Y-99009459D01*
X139333333Y-99009459D02*
X139333333Y-98952316D01*
X139333333Y-98952316D02*
X139352381Y-98876125D01*
X139352381Y-98876125D02*
X139371428Y-98838030D01*
X139371428Y-98838030D02*
X139409523Y-98799935D01*
X139409523Y-98799935D02*
X139466666Y-98780887D01*
X139466666Y-98780887D02*
X139504762Y-98780887D01*
X139504762Y-98780887D02*
X139561904Y-98799935D01*
X139561904Y-98799935D02*
X139580952Y-98818982D01*
X139809523Y-98952316D02*
X139771428Y-98933268D01*
X139771428Y-98933268D02*
X139752381Y-98914220D01*
X139752381Y-98914220D02*
X139733333Y-98876125D01*
X139733333Y-98876125D02*
X139733333Y-98857078D01*
X139733333Y-98857078D02*
X139752381Y-98818982D01*
X139752381Y-98818982D02*
X139771428Y-98799935D01*
X139771428Y-98799935D02*
X139809523Y-98780887D01*
X139809523Y-98780887D02*
X139885714Y-98780887D01*
X139885714Y-98780887D02*
X139923809Y-98799935D01*
X139923809Y-98799935D02*
X139942857Y-98818982D01*
X139942857Y-98818982D02*
X139961904Y-98857078D01*
X139961904Y-98857078D02*
X139961904Y-98876125D01*
X139961904Y-98876125D02*
X139942857Y-98914220D01*
X139942857Y-98914220D02*
X139923809Y-98933268D01*
X139923809Y-98933268D02*
X139885714Y-98952316D01*
X139885714Y-98952316D02*
X139809523Y-98952316D01*
X139809523Y-98952316D02*
X139771428Y-98971363D01*
X139771428Y-98971363D02*
X139752381Y-98990411D01*
X139752381Y-98990411D02*
X139733333Y-99028506D01*
X139733333Y-99028506D02*
X139733333Y-99104697D01*
X139733333Y-99104697D02*
X139752381Y-99142792D01*
X139752381Y-99142792D02*
X139771428Y-99161840D01*
X139771428Y-99161840D02*
X139809523Y-99180887D01*
X139809523Y-99180887D02*
X139885714Y-99180887D01*
X139885714Y-99180887D02*
X139923809Y-99161840D01*
X139923809Y-99161840D02*
X139942857Y-99142792D01*
X139942857Y-99142792D02*
X139961904Y-99104697D01*
X139961904Y-99104697D02*
X139961904Y-99028506D01*
X139961904Y-99028506D02*
X139942857Y-98990411D01*
X139942857Y-98990411D02*
X139923809Y-98971363D01*
X139923809Y-98971363D02*
X139885714Y-98952316D01*
D10*
X136238095Y-108457419D02*
X136238095Y-107457419D01*
X136238095Y-107933609D02*
X136809523Y-107933609D01*
X136809523Y-108457419D02*
X136809523Y-107457419D01*
X137190476Y-107457419D02*
X137809523Y-107457419D01*
X137809523Y-107457419D02*
X137476190Y-107838371D01*
X137476190Y-107838371D02*
X137619047Y-107838371D01*
X137619047Y-107838371D02*
X137714285Y-107885990D01*
X137714285Y-107885990D02*
X137761904Y-107933609D01*
X137761904Y-107933609D02*
X137809523Y-108028847D01*
X137809523Y-108028847D02*
X137809523Y-108266942D01*
X137809523Y-108266942D02*
X137761904Y-108362180D01*
X137761904Y-108362180D02*
X137714285Y-108409800D01*
X137714285Y-108409800D02*
X137619047Y-108457419D01*
X137619047Y-108457419D02*
X137333333Y-108457419D01*
X137333333Y-108457419D02*
X137238095Y-108409800D01*
X137238095Y-108409800D02*
X137190476Y-108362180D01*
D11*
X138680887Y-87604761D02*
X138490411Y-87738094D01*
X138680887Y-87833332D02*
X138280887Y-87833332D01*
X138280887Y-87833332D02*
X138280887Y-87680951D01*
X138280887Y-87680951D02*
X138299935Y-87642856D01*
X138299935Y-87642856D02*
X138318982Y-87623809D01*
X138318982Y-87623809D02*
X138357078Y-87604761D01*
X138357078Y-87604761D02*
X138414220Y-87604761D01*
X138414220Y-87604761D02*
X138452316Y-87623809D01*
X138452316Y-87623809D02*
X138471363Y-87642856D01*
X138471363Y-87642856D02*
X138490411Y-87680951D01*
X138490411Y-87680951D02*
X138490411Y-87833332D01*
X138471363Y-87433332D02*
X138471363Y-87299999D01*
X138680887Y-87242856D02*
X138680887Y-87433332D01*
X138680887Y-87433332D02*
X138280887Y-87433332D01*
X138280887Y-87433332D02*
X138280887Y-87242856D01*
X138299935Y-86861904D02*
X138280887Y-86899999D01*
X138280887Y-86899999D02*
X138280887Y-86957142D01*
X138280887Y-86957142D02*
X138299935Y-87014285D01*
X138299935Y-87014285D02*
X138338030Y-87052380D01*
X138338030Y-87052380D02*
X138376125Y-87071427D01*
X138376125Y-87071427D02*
X138452316Y-87090475D01*
X138452316Y-87090475D02*
X138509459Y-87090475D01*
X138509459Y-87090475D02*
X138585649Y-87071427D01*
X138585649Y-87071427D02*
X138623744Y-87052380D01*
X138623744Y-87052380D02*
X138661840Y-87014285D01*
X138661840Y-87014285D02*
X138680887Y-86957142D01*
X138680887Y-86957142D02*
X138680887Y-86919046D01*
X138680887Y-86919046D02*
X138661840Y-86861904D01*
X138661840Y-86861904D02*
X138642792Y-86842856D01*
X138642792Y-86842856D02*
X138509459Y-86842856D01*
X138509459Y-86842856D02*
X138509459Y-86919046D01*
X138280887Y-86671427D02*
X138604697Y-86671427D01*
X138604697Y-86671427D02*
X138642792Y-86652380D01*
X138642792Y-86652380D02*
X138661840Y-86633332D01*
X138661840Y-86633332D02*
X138680887Y-86595237D01*
X138680887Y-86595237D02*
X138680887Y-86519046D01*
X138680887Y-86519046D02*
X138661840Y-86480951D01*
X138661840Y-86480951D02*
X138642792Y-86461904D01*
X138642792Y-86461904D02*
X138604697Y-86442856D01*
X138604697Y-86442856D02*
X138280887Y-86442856D01*
X138528506Y-86252379D02*
X138528506Y-85947618D01*
X138642792Y-85528570D02*
X138661840Y-85547618D01*
X138661840Y-85547618D02*
X138680887Y-85604760D01*
X138680887Y-85604760D02*
X138680887Y-85642856D01*
X138680887Y-85642856D02*
X138661840Y-85699999D01*
X138661840Y-85699999D02*
X138623744Y-85738094D01*
X138623744Y-85738094D02*
X138585649Y-85757141D01*
X138585649Y-85757141D02*
X138509459Y-85776189D01*
X138509459Y-85776189D02*
X138452316Y-85776189D01*
X138452316Y-85776189D02*
X138376125Y-85757141D01*
X138376125Y-85757141D02*
X138338030Y-85738094D01*
X138338030Y-85738094D02*
X138299935Y-85699999D01*
X138299935Y-85699999D02*
X138280887Y-85642856D01*
X138280887Y-85642856D02*
X138280887Y-85604760D01*
X138280887Y-85604760D02*
X138299935Y-85547618D01*
X138299935Y-85547618D02*
X138318982Y-85528570D01*
X138680887Y-85338094D02*
X138680887Y-85261903D01*
X138680887Y-85261903D02*
X138661840Y-85223808D01*
X138661840Y-85223808D02*
X138642792Y-85204760D01*
X138642792Y-85204760D02*
X138585649Y-85166665D01*
X138585649Y-85166665D02*
X138509459Y-85147618D01*
X138509459Y-85147618D02*
X138357078Y-85147618D01*
X138357078Y-85147618D02*
X138318982Y-85166665D01*
X138318982Y-85166665D02*
X138299935Y-85185713D01*
X138299935Y-85185713D02*
X138280887Y-85223808D01*
X138280887Y-85223808D02*
X138280887Y-85299999D01*
X138280887Y-85299999D02*
X138299935Y-85338094D01*
X138299935Y-85338094D02*
X138318982Y-85357141D01*
X138318982Y-85357141D02*
X138357078Y-85376189D01*
X138357078Y-85376189D02*
X138452316Y-85376189D01*
X138452316Y-85376189D02*
X138490411Y-85357141D01*
X138490411Y-85357141D02*
X138509459Y-85338094D01*
X138509459Y-85338094D02*
X138528506Y-85299999D01*
X138528506Y-85299999D02*
X138528506Y-85223808D01*
X138528506Y-85223808D02*
X138509459Y-85185713D01*
X138509459Y-85185713D02*
X138490411Y-85166665D01*
X138490411Y-85166665D02*
X138452316Y-85147618D01*
X166680887Y-87266665D02*
X166280887Y-87266665D01*
X166680887Y-87076189D02*
X166280887Y-87076189D01*
X166280887Y-87076189D02*
X166566601Y-86942856D01*
X166566601Y-86942856D02*
X166280887Y-86809523D01*
X166280887Y-86809523D02*
X166680887Y-86809523D01*
X166280887Y-86619046D02*
X166604697Y-86619046D01*
X166604697Y-86619046D02*
X166642792Y-86599999D01*
X166642792Y-86599999D02*
X166661840Y-86580951D01*
X166661840Y-86580951D02*
X166680887Y-86542856D01*
X166680887Y-86542856D02*
X166680887Y-86466665D01*
X166680887Y-86466665D02*
X166661840Y-86428570D01*
X166661840Y-86428570D02*
X166642792Y-86409523D01*
X166642792Y-86409523D02*
X166604697Y-86390475D01*
X166604697Y-86390475D02*
X166280887Y-86390475D01*
X166528506Y-86199998D02*
X166528506Y-85895237D01*
X166642792Y-85476189D02*
X166661840Y-85495237D01*
X166661840Y-85495237D02*
X166680887Y-85552379D01*
X166680887Y-85552379D02*
X166680887Y-85590475D01*
X166680887Y-85590475D02*
X166661840Y-85647618D01*
X166661840Y-85647618D02*
X166623744Y-85685713D01*
X166623744Y-85685713D02*
X166585649Y-85704760D01*
X166585649Y-85704760D02*
X166509459Y-85723808D01*
X166509459Y-85723808D02*
X166452316Y-85723808D01*
X166452316Y-85723808D02*
X166376125Y-85704760D01*
X166376125Y-85704760D02*
X166338030Y-85685713D01*
X166338030Y-85685713D02*
X166299935Y-85647618D01*
X166299935Y-85647618D02*
X166280887Y-85590475D01*
X166280887Y-85590475D02*
X166280887Y-85552379D01*
X166280887Y-85552379D02*
X166299935Y-85495237D01*
X166299935Y-85495237D02*
X166318982Y-85476189D01*
X166680887Y-85095237D02*
X166680887Y-85323808D01*
X166680887Y-85209522D02*
X166280887Y-85209522D01*
X166280887Y-85209522D02*
X166338030Y-85247618D01*
X166338030Y-85247618D02*
X166376125Y-85285713D01*
X166376125Y-85285713D02*
X166395173Y-85323808D01*
X166280887Y-84733332D02*
X166280887Y-84923808D01*
X166280887Y-84923808D02*
X166471363Y-84942856D01*
X166471363Y-84942856D02*
X166452316Y-84923808D01*
X166452316Y-84923808D02*
X166433268Y-84885713D01*
X166433268Y-84885713D02*
X166433268Y-84790475D01*
X166433268Y-84790475D02*
X166452316Y-84752380D01*
X166452316Y-84752380D02*
X166471363Y-84733332D01*
X166471363Y-84733332D02*
X166509459Y-84714285D01*
X166509459Y-84714285D02*
X166604697Y-84714285D01*
X166604697Y-84714285D02*
X166642792Y-84733332D01*
X166642792Y-84733332D02*
X166661840Y-84752380D01*
X166661840Y-84752380D02*
X166680887Y-84790475D01*
X166680887Y-84790475D02*
X166680887Y-84885713D01*
X166680887Y-84885713D02*
X166661840Y-84923808D01*
X166661840Y-84923808D02*
X166642792Y-84942856D01*
D10*
X166238095Y-77957419D02*
X166238095Y-76957419D01*
X166238095Y-77433609D02*
X166809523Y-77433609D01*
X166809523Y-77957419D02*
X166809523Y-76957419D01*
X167238095Y-77052657D02*
X167285714Y-77005038D01*
X167285714Y-77005038D02*
X167380952Y-76957419D01*
X167380952Y-76957419D02*
X167619047Y-76957419D01*
X167619047Y-76957419D02*
X167714285Y-77005038D01*
X167714285Y-77005038D02*
X167761904Y-77052657D01*
X167761904Y-77052657D02*
X167809523Y-77147895D01*
X167809523Y-77147895D02*
X167809523Y-77243133D01*
X167809523Y-77243133D02*
X167761904Y-77385990D01*
X167761904Y-77385990D02*
X167190476Y-77957419D01*
X167190476Y-77957419D02*
X167809523Y-77957419D01*
D11*
X137691072Y-105680887D02*
X137691072Y-105280887D01*
X137691072Y-105280887D02*
X137824405Y-105566601D01*
X137824405Y-105566601D02*
X137957738Y-105280887D01*
X137957738Y-105280887D02*
X137957738Y-105680887D01*
X138376786Y-105642792D02*
X138357738Y-105661840D01*
X138357738Y-105661840D02*
X138300596Y-105680887D01*
X138300596Y-105680887D02*
X138262500Y-105680887D01*
X138262500Y-105680887D02*
X138205357Y-105661840D01*
X138205357Y-105661840D02*
X138167262Y-105623744D01*
X138167262Y-105623744D02*
X138148215Y-105585649D01*
X138148215Y-105585649D02*
X138129167Y-105509459D01*
X138129167Y-105509459D02*
X138129167Y-105452316D01*
X138129167Y-105452316D02*
X138148215Y-105376125D01*
X138148215Y-105376125D02*
X138167262Y-105338030D01*
X138167262Y-105338030D02*
X138205357Y-105299935D01*
X138205357Y-105299935D02*
X138262500Y-105280887D01*
X138262500Y-105280887D02*
X138300596Y-105280887D01*
X138300596Y-105280887D02*
X138357738Y-105299935D01*
X138357738Y-105299935D02*
X138376786Y-105318982D01*
X138548215Y-105280887D02*
X138548215Y-105604697D01*
X138548215Y-105604697D02*
X138567262Y-105642792D01*
X138567262Y-105642792D02*
X138586310Y-105661840D01*
X138586310Y-105661840D02*
X138624405Y-105680887D01*
X138624405Y-105680887D02*
X138700596Y-105680887D01*
X138700596Y-105680887D02*
X138738691Y-105661840D01*
X138738691Y-105661840D02*
X138757738Y-105642792D01*
X138757738Y-105642792D02*
X138776786Y-105604697D01*
X138776786Y-105604697D02*
X138776786Y-105280887D01*
X138967263Y-105528506D02*
X139272025Y-105528506D01*
X139691072Y-105642792D02*
X139672024Y-105661840D01*
X139672024Y-105661840D02*
X139614882Y-105680887D01*
X139614882Y-105680887D02*
X139576786Y-105680887D01*
X139576786Y-105680887D02*
X139519643Y-105661840D01*
X139519643Y-105661840D02*
X139481548Y-105623744D01*
X139481548Y-105623744D02*
X139462501Y-105585649D01*
X139462501Y-105585649D02*
X139443453Y-105509459D01*
X139443453Y-105509459D02*
X139443453Y-105452316D01*
X139443453Y-105452316D02*
X139462501Y-105376125D01*
X139462501Y-105376125D02*
X139481548Y-105338030D01*
X139481548Y-105338030D02*
X139519643Y-105299935D01*
X139519643Y-105299935D02*
X139576786Y-105280887D01*
X139576786Y-105280887D02*
X139614882Y-105280887D01*
X139614882Y-105280887D02*
X139672024Y-105299935D01*
X139672024Y-105299935D02*
X139691072Y-105318982D01*
X140072024Y-105680887D02*
X139843453Y-105680887D01*
X139957739Y-105680887D02*
X139957739Y-105280887D01*
X139957739Y-105280887D02*
X139919643Y-105338030D01*
X139919643Y-105338030D02*
X139881548Y-105376125D01*
X139881548Y-105376125D02*
X139843453Y-105395173D01*
X140262500Y-105680887D02*
X140338691Y-105680887D01*
X140338691Y-105680887D02*
X140376786Y-105661840D01*
X140376786Y-105661840D02*
X140395834Y-105642792D01*
X140395834Y-105642792D02*
X140433929Y-105585649D01*
X140433929Y-105585649D02*
X140452976Y-105509459D01*
X140452976Y-105509459D02*
X140452976Y-105357078D01*
X140452976Y-105357078D02*
X140433929Y-105318982D01*
X140433929Y-105318982D02*
X140414881Y-105299935D01*
X140414881Y-105299935D02*
X140376786Y-105280887D01*
X140376786Y-105280887D02*
X140300595Y-105280887D01*
X140300595Y-105280887D02*
X140262500Y-105299935D01*
X140262500Y-105299935D02*
X140243453Y-105318982D01*
X140243453Y-105318982D02*
X140224405Y-105357078D01*
X140224405Y-105357078D02*
X140224405Y-105452316D01*
X140224405Y-105452316D02*
X140243453Y-105490411D01*
X140243453Y-105490411D02*
X140262500Y-105509459D01*
X140262500Y-105509459D02*
X140300595Y-105528506D01*
X140300595Y-105528506D02*
X140376786Y-105528506D01*
X140376786Y-105528506D02*
X140414881Y-105509459D01*
X140414881Y-105509459D02*
X140433929Y-105490411D01*
X140433929Y-105490411D02*
X140452976Y-105452316D01*
X143166667Y-114280887D02*
X143395238Y-114280887D01*
X143280952Y-114680887D02*
X143280952Y-114280887D01*
X143509524Y-114566601D02*
X143700000Y-114566601D01*
X143471429Y-114680887D02*
X143604762Y-114280887D01*
X143604762Y-114280887D02*
X143738095Y-114680887D01*
X143871429Y-114680887D02*
X143871429Y-114280887D01*
X143871429Y-114280887D02*
X144100000Y-114680887D01*
X144100000Y-114680887D02*
X144100000Y-114280887D01*
X144290477Y-114680887D02*
X144290477Y-114280887D01*
X144519048Y-114680887D02*
X144347619Y-114452316D01*
X144519048Y-114280887D02*
X144290477Y-114509459D01*
X144690477Y-114528506D02*
X144995239Y-114528506D01*
X145414286Y-114642792D02*
X145395238Y-114661840D01*
X145395238Y-114661840D02*
X145338096Y-114680887D01*
X145338096Y-114680887D02*
X145300000Y-114680887D01*
X145300000Y-114680887D02*
X145242857Y-114661840D01*
X145242857Y-114661840D02*
X145204762Y-114623744D01*
X145204762Y-114623744D02*
X145185715Y-114585649D01*
X145185715Y-114585649D02*
X145166667Y-114509459D01*
X145166667Y-114509459D02*
X145166667Y-114452316D01*
X145166667Y-114452316D02*
X145185715Y-114376125D01*
X145185715Y-114376125D02*
X145204762Y-114338030D01*
X145204762Y-114338030D02*
X145242857Y-114299935D01*
X145242857Y-114299935D02*
X145300000Y-114280887D01*
X145300000Y-114280887D02*
X145338096Y-114280887D01*
X145338096Y-114280887D02*
X145395238Y-114299935D01*
X145395238Y-114299935D02*
X145414286Y-114318982D01*
X145757143Y-114414220D02*
X145757143Y-114680887D01*
X145661905Y-114261840D02*
X145566667Y-114547554D01*
X145566667Y-114547554D02*
X145814286Y-114547554D01*
D12*
X155510237Y-99836318D02*
X155510237Y-98566318D01*
X156840714Y-99715365D02*
X156780238Y-99775842D01*
X156780238Y-99775842D02*
X156598809Y-99836318D01*
X156598809Y-99836318D02*
X156477857Y-99836318D01*
X156477857Y-99836318D02*
X156296428Y-99775842D01*
X156296428Y-99775842D02*
X156175476Y-99654889D01*
X156175476Y-99654889D02*
X156114999Y-99533937D01*
X156114999Y-99533937D02*
X156054523Y-99292032D01*
X156054523Y-99292032D02*
X156054523Y-99110603D01*
X156054523Y-99110603D02*
X156114999Y-98868699D01*
X156114999Y-98868699D02*
X156175476Y-98747746D01*
X156175476Y-98747746D02*
X156296428Y-98626794D01*
X156296428Y-98626794D02*
X156477857Y-98566318D01*
X156477857Y-98566318D02*
X156598809Y-98566318D01*
X156598809Y-98566318D02*
X156780238Y-98626794D01*
X156780238Y-98626794D02*
X156840714Y-98687270D01*
X157324523Y-98687270D02*
X157384999Y-98626794D01*
X157384999Y-98626794D02*
X157505952Y-98566318D01*
X157505952Y-98566318D02*
X157808333Y-98566318D01*
X157808333Y-98566318D02*
X157929285Y-98626794D01*
X157929285Y-98626794D02*
X157989761Y-98687270D01*
X157989761Y-98687270D02*
X158050238Y-98808222D01*
X158050238Y-98808222D02*
X158050238Y-98929175D01*
X158050238Y-98929175D02*
X157989761Y-99110603D01*
X157989761Y-99110603D02*
X157264047Y-99836318D01*
X157264047Y-99836318D02*
X158050238Y-99836318D01*
D11*
X169966667Y-90161840D02*
X170023810Y-90180887D01*
X170023810Y-90180887D02*
X170119048Y-90180887D01*
X170119048Y-90180887D02*
X170157143Y-90161840D01*
X170157143Y-90161840D02*
X170176191Y-90142792D01*
X170176191Y-90142792D02*
X170195238Y-90104697D01*
X170195238Y-90104697D02*
X170195238Y-90066601D01*
X170195238Y-90066601D02*
X170176191Y-90028506D01*
X170176191Y-90028506D02*
X170157143Y-90009459D01*
X170157143Y-90009459D02*
X170119048Y-89990411D01*
X170119048Y-89990411D02*
X170042857Y-89971363D01*
X170042857Y-89971363D02*
X170004762Y-89952316D01*
X170004762Y-89952316D02*
X169985715Y-89933268D01*
X169985715Y-89933268D02*
X169966667Y-89895173D01*
X169966667Y-89895173D02*
X169966667Y-89857078D01*
X169966667Y-89857078D02*
X169985715Y-89818982D01*
X169985715Y-89818982D02*
X170004762Y-89799935D01*
X170004762Y-89799935D02*
X170042857Y-89780887D01*
X170042857Y-89780887D02*
X170138096Y-89780887D01*
X170138096Y-89780887D02*
X170195238Y-89799935D01*
X170328571Y-89780887D02*
X170423809Y-90180887D01*
X170423809Y-90180887D02*
X170500000Y-89895173D01*
X170500000Y-89895173D02*
X170576190Y-90180887D01*
X170576190Y-90180887D02*
X170671429Y-89780887D01*
X170995238Y-89780887D02*
X170919048Y-89780887D01*
X170919048Y-89780887D02*
X170880952Y-89799935D01*
X170880952Y-89799935D02*
X170861905Y-89818982D01*
X170861905Y-89818982D02*
X170823810Y-89876125D01*
X170823810Y-89876125D02*
X170804762Y-89952316D01*
X170804762Y-89952316D02*
X170804762Y-90104697D01*
X170804762Y-90104697D02*
X170823810Y-90142792D01*
X170823810Y-90142792D02*
X170842857Y-90161840D01*
X170842857Y-90161840D02*
X170880952Y-90180887D01*
X170880952Y-90180887D02*
X170957143Y-90180887D01*
X170957143Y-90180887D02*
X170995238Y-90161840D01*
X170995238Y-90161840D02*
X171014286Y-90142792D01*
X171014286Y-90142792D02*
X171033333Y-90104697D01*
X171033333Y-90104697D02*
X171033333Y-90009459D01*
X171033333Y-90009459D02*
X171014286Y-89971363D01*
X171014286Y-89971363D02*
X170995238Y-89952316D01*
X170995238Y-89952316D02*
X170957143Y-89933268D01*
X170957143Y-89933268D02*
X170880952Y-89933268D01*
X170880952Y-89933268D02*
X170842857Y-89952316D01*
X170842857Y-89952316D02*
X170823810Y-89971363D01*
X170823810Y-89971363D02*
X170804762Y-90009459D01*
D13*
X157666666Y-82454819D02*
X157666666Y-83169104D01*
X157666666Y-83169104D02*
X157619047Y-83311961D01*
X157619047Y-83311961D02*
X157523809Y-83407200D01*
X157523809Y-83407200D02*
X157380952Y-83454819D01*
X157380952Y-83454819D02*
X157285714Y-83454819D01*
X158666666Y-83454819D02*
X158095238Y-83454819D01*
X158380952Y-83454819D02*
X158380952Y-82454819D01*
X158380952Y-82454819D02*
X158285714Y-82597676D01*
X158285714Y-82597676D02*
X158190476Y-82692914D01*
X158190476Y-82692914D02*
X158095238Y-82740533D01*
D11*
X152895239Y-109180887D02*
X152895239Y-108780887D01*
X152895239Y-108780887D02*
X153047620Y-108780887D01*
X153047620Y-108780887D02*
X153085715Y-108799935D01*
X153085715Y-108799935D02*
X153104762Y-108818982D01*
X153104762Y-108818982D02*
X153123810Y-108857078D01*
X153123810Y-108857078D02*
X153123810Y-108914220D01*
X153123810Y-108914220D02*
X153104762Y-108952316D01*
X153104762Y-108952316D02*
X153085715Y-108971363D01*
X153085715Y-108971363D02*
X153047620Y-108990411D01*
X153047620Y-108990411D02*
X152895239Y-108990411D01*
X153276191Y-109066601D02*
X153466667Y-109066601D01*
X153238096Y-109180887D02*
X153371429Y-108780887D01*
X153371429Y-108780887D02*
X153504762Y-109180887D01*
X153847619Y-109180887D02*
X153619048Y-109180887D01*
X153733334Y-109180887D02*
X153733334Y-108780887D01*
X153733334Y-108780887D02*
X153695238Y-108838030D01*
X153695238Y-108838030D02*
X153657143Y-108876125D01*
X153657143Y-108876125D02*
X153619048Y-108895173D01*
X154019048Y-109028506D02*
X154323810Y-109028506D01*
X154742857Y-109180887D02*
X154609524Y-108990411D01*
X154514286Y-109180887D02*
X154514286Y-108780887D01*
X154514286Y-108780887D02*
X154666667Y-108780887D01*
X154666667Y-108780887D02*
X154704762Y-108799935D01*
X154704762Y-108799935D02*
X154723809Y-108818982D01*
X154723809Y-108818982D02*
X154742857Y-108857078D01*
X154742857Y-108857078D02*
X154742857Y-108914220D01*
X154742857Y-108914220D02*
X154723809Y-108952316D01*
X154723809Y-108952316D02*
X154704762Y-108971363D01*
X154704762Y-108971363D02*
X154666667Y-108990411D01*
X154666667Y-108990411D02*
X154514286Y-108990411D01*
X155085714Y-108914220D02*
X155085714Y-109180887D01*
X154990476Y-108761840D02*
X154895238Y-109047554D01*
X154895238Y-109047554D02*
X155142857Y-109047554D01*
X137114286Y-95180887D02*
X136980953Y-94990411D01*
X136885715Y-95180887D02*
X136885715Y-94780887D01*
X136885715Y-94780887D02*
X137038096Y-94780887D01*
X137038096Y-94780887D02*
X137076191Y-94799935D01*
X137076191Y-94799935D02*
X137095238Y-94818982D01*
X137095238Y-94818982D02*
X137114286Y-94857078D01*
X137114286Y-94857078D02*
X137114286Y-94914220D01*
X137114286Y-94914220D02*
X137095238Y-94952316D01*
X137095238Y-94952316D02*
X137076191Y-94971363D01*
X137076191Y-94971363D02*
X137038096Y-94990411D01*
X137038096Y-94990411D02*
X136885715Y-94990411D01*
X137285715Y-94971363D02*
X137419048Y-94971363D01*
X137476191Y-95180887D02*
X137285715Y-95180887D01*
X137285715Y-95180887D02*
X137285715Y-94780887D01*
X137285715Y-94780887D02*
X137476191Y-94780887D01*
X137628572Y-95161840D02*
X137685715Y-95180887D01*
X137685715Y-95180887D02*
X137780953Y-95180887D01*
X137780953Y-95180887D02*
X137819048Y-95161840D01*
X137819048Y-95161840D02*
X137838096Y-95142792D01*
X137838096Y-95142792D02*
X137857143Y-95104697D01*
X137857143Y-95104697D02*
X137857143Y-95066601D01*
X137857143Y-95066601D02*
X137838096Y-95028506D01*
X137838096Y-95028506D02*
X137819048Y-95009459D01*
X137819048Y-95009459D02*
X137780953Y-94990411D01*
X137780953Y-94990411D02*
X137704762Y-94971363D01*
X137704762Y-94971363D02*
X137666667Y-94952316D01*
X137666667Y-94952316D02*
X137647620Y-94933268D01*
X137647620Y-94933268D02*
X137628572Y-94895173D01*
X137628572Y-94895173D02*
X137628572Y-94857078D01*
X137628572Y-94857078D02*
X137647620Y-94818982D01*
X137647620Y-94818982D02*
X137666667Y-94799935D01*
X137666667Y-94799935D02*
X137704762Y-94780887D01*
X137704762Y-94780887D02*
X137800001Y-94780887D01*
X137800001Y-94780887D02*
X137857143Y-94799935D01*
X138028572Y-95028506D02*
X138333334Y-95028506D01*
X138752381Y-95180887D02*
X138619048Y-94990411D01*
X138523810Y-95180887D02*
X138523810Y-94780887D01*
X138523810Y-94780887D02*
X138676191Y-94780887D01*
X138676191Y-94780887D02*
X138714286Y-94799935D01*
X138714286Y-94799935D02*
X138733333Y-94818982D01*
X138733333Y-94818982D02*
X138752381Y-94857078D01*
X138752381Y-94857078D02*
X138752381Y-94914220D01*
X138752381Y-94914220D02*
X138733333Y-94952316D01*
X138733333Y-94952316D02*
X138714286Y-94971363D01*
X138714286Y-94971363D02*
X138676191Y-94990411D01*
X138676191Y-94990411D02*
X138523810Y-94990411D01*
X139133333Y-95180887D02*
X138904762Y-95180887D01*
X139019048Y-95180887D02*
X139019048Y-94780887D01*
X139019048Y-94780887D02*
X138980952Y-94838030D01*
X138980952Y-94838030D02*
X138942857Y-94876125D01*
X138942857Y-94876125D02*
X138904762Y-94895173D01*
X170680887Y-103076189D02*
X170280887Y-103076189D01*
X170680887Y-102885713D02*
X170280887Y-102885713D01*
X170280887Y-102885713D02*
X170566601Y-102752380D01*
X170566601Y-102752380D02*
X170280887Y-102619047D01*
X170280887Y-102619047D02*
X170680887Y-102619047D01*
X170280887Y-102428570D02*
X170604697Y-102428570D01*
X170604697Y-102428570D02*
X170642792Y-102409523D01*
X170642792Y-102409523D02*
X170661840Y-102390475D01*
X170661840Y-102390475D02*
X170680887Y-102352380D01*
X170680887Y-102352380D02*
X170680887Y-102276189D01*
X170680887Y-102276189D02*
X170661840Y-102238094D01*
X170661840Y-102238094D02*
X170642792Y-102219047D01*
X170642792Y-102219047D02*
X170604697Y-102199999D01*
X170604697Y-102199999D02*
X170280887Y-102199999D01*
X170528506Y-102009522D02*
X170528506Y-101704761D01*
X170642792Y-101285713D02*
X170661840Y-101304761D01*
X170661840Y-101304761D02*
X170680887Y-101361903D01*
X170680887Y-101361903D02*
X170680887Y-101399999D01*
X170680887Y-101399999D02*
X170661840Y-101457142D01*
X170661840Y-101457142D02*
X170623744Y-101495237D01*
X170623744Y-101495237D02*
X170585649Y-101514284D01*
X170585649Y-101514284D02*
X170509459Y-101533332D01*
X170509459Y-101533332D02*
X170452316Y-101533332D01*
X170452316Y-101533332D02*
X170376125Y-101514284D01*
X170376125Y-101514284D02*
X170338030Y-101495237D01*
X170338030Y-101495237D02*
X170299935Y-101457142D01*
X170299935Y-101457142D02*
X170280887Y-101399999D01*
X170280887Y-101399999D02*
X170280887Y-101361903D01*
X170280887Y-101361903D02*
X170299935Y-101304761D01*
X170299935Y-101304761D02*
X170318982Y-101285713D01*
X170280887Y-101152380D02*
X170280887Y-100885713D01*
X170280887Y-100885713D02*
X170680887Y-101057142D01*
X143819048Y-95330887D02*
X143819048Y-94930887D01*
X143819048Y-94930887D02*
X143952381Y-95216601D01*
X143952381Y-95216601D02*
X144085714Y-94930887D01*
X144085714Y-94930887D02*
X144085714Y-95330887D01*
X144504762Y-95292792D02*
X144485714Y-95311840D01*
X144485714Y-95311840D02*
X144428572Y-95330887D01*
X144428572Y-95330887D02*
X144390476Y-95330887D01*
X144390476Y-95330887D02*
X144333333Y-95311840D01*
X144333333Y-95311840D02*
X144295238Y-95273744D01*
X144295238Y-95273744D02*
X144276191Y-95235649D01*
X144276191Y-95235649D02*
X144257143Y-95159459D01*
X144257143Y-95159459D02*
X144257143Y-95102316D01*
X144257143Y-95102316D02*
X144276191Y-95026125D01*
X144276191Y-95026125D02*
X144295238Y-94988030D01*
X144295238Y-94988030D02*
X144333333Y-94949935D01*
X144333333Y-94949935D02*
X144390476Y-94930887D01*
X144390476Y-94930887D02*
X144428572Y-94930887D01*
X144428572Y-94930887D02*
X144485714Y-94949935D01*
X144485714Y-94949935D02*
X144504762Y-94968982D01*
X144676191Y-94930887D02*
X144676191Y-95254697D01*
X144676191Y-95254697D02*
X144695238Y-95292792D01*
X144695238Y-95292792D02*
X144714286Y-95311840D01*
X144714286Y-95311840D02*
X144752381Y-95330887D01*
X144752381Y-95330887D02*
X144828572Y-95330887D01*
X144828572Y-95330887D02*
X144866667Y-95311840D01*
X144866667Y-95311840D02*
X144885714Y-95292792D01*
X144885714Y-95292792D02*
X144904762Y-95254697D01*
X144904762Y-95254697D02*
X144904762Y-94930887D01*
X145095239Y-95178506D02*
X145400001Y-95178506D01*
X145819048Y-95330887D02*
X145685715Y-95140411D01*
X145590477Y-95330887D02*
X145590477Y-94930887D01*
X145590477Y-94930887D02*
X145742858Y-94930887D01*
X145742858Y-94930887D02*
X145780953Y-94949935D01*
X145780953Y-94949935D02*
X145800000Y-94968982D01*
X145800000Y-94968982D02*
X145819048Y-95007078D01*
X145819048Y-95007078D02*
X145819048Y-95064220D01*
X145819048Y-95064220D02*
X145800000Y-95102316D01*
X145800000Y-95102316D02*
X145780953Y-95121363D01*
X145780953Y-95121363D02*
X145742858Y-95140411D01*
X145742858Y-95140411D02*
X145590477Y-95140411D01*
X145952381Y-94930887D02*
X146219048Y-94930887D01*
X146219048Y-94930887D02*
X146047619Y-95330887D01*
X146247619Y-107780887D02*
X146380952Y-108180887D01*
X146380952Y-108180887D02*
X146514285Y-107780887D01*
X146876190Y-108142792D02*
X146857142Y-108161840D01*
X146857142Y-108161840D02*
X146800000Y-108180887D01*
X146800000Y-108180887D02*
X146761904Y-108180887D01*
X146761904Y-108180887D02*
X146704761Y-108161840D01*
X146704761Y-108161840D02*
X146666666Y-108123744D01*
X146666666Y-108123744D02*
X146647619Y-108085649D01*
X146647619Y-108085649D02*
X146628571Y-108009459D01*
X146628571Y-108009459D02*
X146628571Y-107952316D01*
X146628571Y-107952316D02*
X146647619Y-107876125D01*
X146647619Y-107876125D02*
X146666666Y-107838030D01*
X146666666Y-107838030D02*
X146704761Y-107799935D01*
X146704761Y-107799935D02*
X146761904Y-107780887D01*
X146761904Y-107780887D02*
X146800000Y-107780887D01*
X146800000Y-107780887D02*
X146857142Y-107799935D01*
X146857142Y-107799935D02*
X146876190Y-107818982D01*
X147123809Y-107780887D02*
X147200000Y-107780887D01*
X147200000Y-107780887D02*
X147238095Y-107799935D01*
X147238095Y-107799935D02*
X147276190Y-107838030D01*
X147276190Y-107838030D02*
X147295238Y-107914220D01*
X147295238Y-107914220D02*
X147295238Y-108047554D01*
X147295238Y-108047554D02*
X147276190Y-108123744D01*
X147276190Y-108123744D02*
X147238095Y-108161840D01*
X147238095Y-108161840D02*
X147200000Y-108180887D01*
X147200000Y-108180887D02*
X147123809Y-108180887D01*
X147123809Y-108180887D02*
X147085714Y-108161840D01*
X147085714Y-108161840D02*
X147047619Y-108123744D01*
X147047619Y-108123744D02*
X147028571Y-108047554D01*
X147028571Y-108047554D02*
X147028571Y-107914220D01*
X147028571Y-107914220D02*
X147047619Y-107838030D01*
X147047619Y-107838030D02*
X147085714Y-107799935D01*
X147085714Y-107799935D02*
X147123809Y-107780887D01*
X147695238Y-108180887D02*
X147561905Y-107990411D01*
X147466667Y-108180887D02*
X147466667Y-107780887D01*
X147466667Y-107780887D02*
X147619048Y-107780887D01*
X147619048Y-107780887D02*
X147657143Y-107799935D01*
X147657143Y-107799935D02*
X147676190Y-107818982D01*
X147676190Y-107818982D02*
X147695238Y-107857078D01*
X147695238Y-107857078D02*
X147695238Y-107914220D01*
X147695238Y-107914220D02*
X147676190Y-107952316D01*
X147676190Y-107952316D02*
X147657143Y-107971363D01*
X147657143Y-107971363D02*
X147619048Y-107990411D01*
X147619048Y-107990411D02*
X147466667Y-107990411D01*
X147866667Y-107971363D02*
X148000000Y-107971363D01*
X148057143Y-108180887D02*
X147866667Y-108180887D01*
X147866667Y-108180887D02*
X147866667Y-107780887D01*
X147866667Y-107780887D02*
X148057143Y-107780887D01*
X148228572Y-108028506D02*
X148533334Y-108028506D01*
X148952381Y-108142792D02*
X148933333Y-108161840D01*
X148933333Y-108161840D02*
X148876191Y-108180887D01*
X148876191Y-108180887D02*
X148838095Y-108180887D01*
X148838095Y-108180887D02*
X148780952Y-108161840D01*
X148780952Y-108161840D02*
X148742857Y-108123744D01*
X148742857Y-108123744D02*
X148723810Y-108085649D01*
X148723810Y-108085649D02*
X148704762Y-108009459D01*
X148704762Y-108009459D02*
X148704762Y-107952316D01*
X148704762Y-107952316D02*
X148723810Y-107876125D01*
X148723810Y-107876125D02*
X148742857Y-107838030D01*
X148742857Y-107838030D02*
X148780952Y-107799935D01*
X148780952Y-107799935D02*
X148838095Y-107780887D01*
X148838095Y-107780887D02*
X148876191Y-107780887D01*
X148876191Y-107780887D02*
X148933333Y-107799935D01*
X148933333Y-107799935D02*
X148952381Y-107818982D01*
X149333333Y-108180887D02*
X149104762Y-108180887D01*
X149219048Y-108180887D02*
X149219048Y-107780887D01*
X149219048Y-107780887D02*
X149180952Y-107838030D01*
X149180952Y-107838030D02*
X149142857Y-107876125D01*
X149142857Y-107876125D02*
X149104762Y-107895173D01*
X149676190Y-107780887D02*
X149600000Y-107780887D01*
X149600000Y-107780887D02*
X149561904Y-107799935D01*
X149561904Y-107799935D02*
X149542857Y-107818982D01*
X149542857Y-107818982D02*
X149504762Y-107876125D01*
X149504762Y-107876125D02*
X149485714Y-107952316D01*
X149485714Y-107952316D02*
X149485714Y-108104697D01*
X149485714Y-108104697D02*
X149504762Y-108142792D01*
X149504762Y-108142792D02*
X149523809Y-108161840D01*
X149523809Y-108161840D02*
X149561904Y-108180887D01*
X149561904Y-108180887D02*
X149638095Y-108180887D01*
X149638095Y-108180887D02*
X149676190Y-108161840D01*
X149676190Y-108161840D02*
X149695238Y-108142792D01*
X149695238Y-108142792D02*
X149714285Y-108104697D01*
X149714285Y-108104697D02*
X149714285Y-108009459D01*
X149714285Y-108009459D02*
X149695238Y-107971363D01*
X149695238Y-107971363D02*
X149676190Y-107952316D01*
X149676190Y-107952316D02*
X149638095Y-107933268D01*
X149638095Y-107933268D02*
X149561904Y-107933268D01*
X149561904Y-107933268D02*
X149523809Y-107952316D01*
X149523809Y-107952316D02*
X149504762Y-107971363D01*
X149504762Y-107971363D02*
X149485714Y-108009459D01*
X149895239Y-114680887D02*
X149895239Y-114280887D01*
X149895239Y-114280887D02*
X150047620Y-114280887D01*
X150047620Y-114280887D02*
X150085715Y-114299935D01*
X150085715Y-114299935D02*
X150104762Y-114318982D01*
X150104762Y-114318982D02*
X150123810Y-114357078D01*
X150123810Y-114357078D02*
X150123810Y-114414220D01*
X150123810Y-114414220D02*
X150104762Y-114452316D01*
X150104762Y-114452316D02*
X150085715Y-114471363D01*
X150085715Y-114471363D02*
X150047620Y-114490411D01*
X150047620Y-114490411D02*
X149895239Y-114490411D01*
X150276191Y-114566601D02*
X150466667Y-114566601D01*
X150238096Y-114680887D02*
X150371429Y-114280887D01*
X150371429Y-114280887D02*
X150504762Y-114680887D01*
X150714286Y-114280887D02*
X150752381Y-114280887D01*
X150752381Y-114280887D02*
X150790477Y-114299935D01*
X150790477Y-114299935D02*
X150809524Y-114318982D01*
X150809524Y-114318982D02*
X150828572Y-114357078D01*
X150828572Y-114357078D02*
X150847619Y-114433268D01*
X150847619Y-114433268D02*
X150847619Y-114528506D01*
X150847619Y-114528506D02*
X150828572Y-114604697D01*
X150828572Y-114604697D02*
X150809524Y-114642792D01*
X150809524Y-114642792D02*
X150790477Y-114661840D01*
X150790477Y-114661840D02*
X150752381Y-114680887D01*
X150752381Y-114680887D02*
X150714286Y-114680887D01*
X150714286Y-114680887D02*
X150676191Y-114661840D01*
X150676191Y-114661840D02*
X150657143Y-114642792D01*
X150657143Y-114642792D02*
X150638096Y-114604697D01*
X150638096Y-114604697D02*
X150619048Y-114528506D01*
X150619048Y-114528506D02*
X150619048Y-114433268D01*
X150619048Y-114433268D02*
X150638096Y-114357078D01*
X150638096Y-114357078D02*
X150657143Y-114318982D01*
X150657143Y-114318982D02*
X150676191Y-114299935D01*
X150676191Y-114299935D02*
X150714286Y-114280887D01*
X151019048Y-114528506D02*
X151323810Y-114528506D01*
X151742857Y-114680887D02*
X151609524Y-114490411D01*
X151514286Y-114680887D02*
X151514286Y-114280887D01*
X151514286Y-114280887D02*
X151666667Y-114280887D01*
X151666667Y-114280887D02*
X151704762Y-114299935D01*
X151704762Y-114299935D02*
X151723809Y-114318982D01*
X151723809Y-114318982D02*
X151742857Y-114357078D01*
X151742857Y-114357078D02*
X151742857Y-114414220D01*
X151742857Y-114414220D02*
X151723809Y-114452316D01*
X151723809Y-114452316D02*
X151704762Y-114471363D01*
X151704762Y-114471363D02*
X151666667Y-114490411D01*
X151666667Y-114490411D02*
X151514286Y-114490411D01*
X151876190Y-114280887D02*
X152123809Y-114280887D01*
X152123809Y-114280887D02*
X151990476Y-114433268D01*
X151990476Y-114433268D02*
X152047619Y-114433268D01*
X152047619Y-114433268D02*
X152085714Y-114452316D01*
X152085714Y-114452316D02*
X152104762Y-114471363D01*
X152104762Y-114471363D02*
X152123809Y-114509459D01*
X152123809Y-114509459D02*
X152123809Y-114604697D01*
X152123809Y-114604697D02*
X152104762Y-114642792D01*
X152104762Y-114642792D02*
X152085714Y-114661840D01*
X152085714Y-114661840D02*
X152047619Y-114680887D01*
X152047619Y-114680887D02*
X151933333Y-114680887D01*
X151933333Y-114680887D02*
X151895238Y-114661840D01*
X151895238Y-114661840D02*
X151876190Y-114642792D01*
X155657144Y-114280887D02*
X155790477Y-114680887D01*
X155790477Y-114680887D02*
X155923810Y-114280887D01*
X156038096Y-114661840D02*
X156095239Y-114680887D01*
X156095239Y-114680887D02*
X156190477Y-114680887D01*
X156190477Y-114680887D02*
X156228572Y-114661840D01*
X156228572Y-114661840D02*
X156247620Y-114642792D01*
X156247620Y-114642792D02*
X156266667Y-114604697D01*
X156266667Y-114604697D02*
X156266667Y-114566601D01*
X156266667Y-114566601D02*
X156247620Y-114528506D01*
X156247620Y-114528506D02*
X156228572Y-114509459D01*
X156228572Y-114509459D02*
X156190477Y-114490411D01*
X156190477Y-114490411D02*
X156114286Y-114471363D01*
X156114286Y-114471363D02*
X156076191Y-114452316D01*
X156076191Y-114452316D02*
X156057144Y-114433268D01*
X156057144Y-114433268D02*
X156038096Y-114395173D01*
X156038096Y-114395173D02*
X156038096Y-114357078D01*
X156038096Y-114357078D02*
X156057144Y-114318982D01*
X156057144Y-114318982D02*
X156076191Y-114299935D01*
X156076191Y-114299935D02*
X156114286Y-114280887D01*
X156114286Y-114280887D02*
X156209525Y-114280887D01*
X156209525Y-114280887D02*
X156266667Y-114299935D01*
X156419048Y-114661840D02*
X156476191Y-114680887D01*
X156476191Y-114680887D02*
X156571429Y-114680887D01*
X156571429Y-114680887D02*
X156609524Y-114661840D01*
X156609524Y-114661840D02*
X156628572Y-114642792D01*
X156628572Y-114642792D02*
X156647619Y-114604697D01*
X156647619Y-114604697D02*
X156647619Y-114566601D01*
X156647619Y-114566601D02*
X156628572Y-114528506D01*
X156628572Y-114528506D02*
X156609524Y-114509459D01*
X156609524Y-114509459D02*
X156571429Y-114490411D01*
X156571429Y-114490411D02*
X156495238Y-114471363D01*
X156495238Y-114471363D02*
X156457143Y-114452316D01*
X156457143Y-114452316D02*
X156438096Y-114433268D01*
X156438096Y-114433268D02*
X156419048Y-114395173D01*
X156419048Y-114395173D02*
X156419048Y-114357078D01*
X156419048Y-114357078D02*
X156438096Y-114318982D01*
X156438096Y-114318982D02*
X156457143Y-114299935D01*
X156457143Y-114299935D02*
X156495238Y-114280887D01*
X156495238Y-114280887D02*
X156590477Y-114280887D01*
X156590477Y-114280887D02*
X156647619Y-114299935D01*
X156819048Y-114528506D02*
X157123810Y-114528506D01*
X157542857Y-114642792D02*
X157523809Y-114661840D01*
X157523809Y-114661840D02*
X157466667Y-114680887D01*
X157466667Y-114680887D02*
X157428571Y-114680887D01*
X157428571Y-114680887D02*
X157371428Y-114661840D01*
X157371428Y-114661840D02*
X157333333Y-114623744D01*
X157333333Y-114623744D02*
X157314286Y-114585649D01*
X157314286Y-114585649D02*
X157295238Y-114509459D01*
X157295238Y-114509459D02*
X157295238Y-114452316D01*
X157295238Y-114452316D02*
X157314286Y-114376125D01*
X157314286Y-114376125D02*
X157333333Y-114338030D01*
X157333333Y-114338030D02*
X157371428Y-114299935D01*
X157371428Y-114299935D02*
X157428571Y-114280887D01*
X157428571Y-114280887D02*
X157466667Y-114280887D01*
X157466667Y-114280887D02*
X157523809Y-114299935D01*
X157523809Y-114299935D02*
X157542857Y-114318982D01*
X157923809Y-114680887D02*
X157695238Y-114680887D01*
X157809524Y-114680887D02*
X157809524Y-114280887D01*
X157809524Y-114280887D02*
X157771428Y-114338030D01*
X157771428Y-114338030D02*
X157733333Y-114376125D01*
X157733333Y-114376125D02*
X157695238Y-114395173D01*
X158152380Y-114452316D02*
X158114285Y-114433268D01*
X158114285Y-114433268D02*
X158095238Y-114414220D01*
X158095238Y-114414220D02*
X158076190Y-114376125D01*
X158076190Y-114376125D02*
X158076190Y-114357078D01*
X158076190Y-114357078D02*
X158095238Y-114318982D01*
X158095238Y-114318982D02*
X158114285Y-114299935D01*
X158114285Y-114299935D02*
X158152380Y-114280887D01*
X158152380Y-114280887D02*
X158228571Y-114280887D01*
X158228571Y-114280887D02*
X158266666Y-114299935D01*
X158266666Y-114299935D02*
X158285714Y-114318982D01*
X158285714Y-114318982D02*
X158304761Y-114357078D01*
X158304761Y-114357078D02*
X158304761Y-114376125D01*
X158304761Y-114376125D02*
X158285714Y-114414220D01*
X158285714Y-114414220D02*
X158266666Y-114433268D01*
X158266666Y-114433268D02*
X158228571Y-114452316D01*
X158228571Y-114452316D02*
X158152380Y-114452316D01*
X158152380Y-114452316D02*
X158114285Y-114471363D01*
X158114285Y-114471363D02*
X158095238Y-114490411D01*
X158095238Y-114490411D02*
X158076190Y-114528506D01*
X158076190Y-114528506D02*
X158076190Y-114604697D01*
X158076190Y-114604697D02*
X158095238Y-114642792D01*
X158095238Y-114642792D02*
X158114285Y-114661840D01*
X158114285Y-114661840D02*
X158152380Y-114680887D01*
X158152380Y-114680887D02*
X158228571Y-114680887D01*
X158228571Y-114680887D02*
X158266666Y-114661840D01*
X158266666Y-114661840D02*
X158285714Y-114642792D01*
X158285714Y-114642792D02*
X158304761Y-114604697D01*
X158304761Y-114604697D02*
X158304761Y-114528506D01*
X158304761Y-114528506D02*
X158285714Y-114490411D01*
X158285714Y-114490411D02*
X158266666Y-114471363D01*
X158266666Y-114471363D02*
X158228571Y-114452316D01*
X144285714Y-98680887D02*
X144152381Y-98490411D01*
X144057143Y-98680887D02*
X144057143Y-98280887D01*
X144057143Y-98280887D02*
X144209524Y-98280887D01*
X144209524Y-98280887D02*
X144247619Y-98299935D01*
X144247619Y-98299935D02*
X144266666Y-98318982D01*
X144266666Y-98318982D02*
X144285714Y-98357078D01*
X144285714Y-98357078D02*
X144285714Y-98414220D01*
X144285714Y-98414220D02*
X144266666Y-98452316D01*
X144266666Y-98452316D02*
X144247619Y-98471363D01*
X144247619Y-98471363D02*
X144209524Y-98490411D01*
X144209524Y-98490411D02*
X144057143Y-98490411D01*
X144685714Y-98642792D02*
X144666666Y-98661840D01*
X144666666Y-98661840D02*
X144609524Y-98680887D01*
X144609524Y-98680887D02*
X144571428Y-98680887D01*
X144571428Y-98680887D02*
X144514285Y-98661840D01*
X144514285Y-98661840D02*
X144476190Y-98623744D01*
X144476190Y-98623744D02*
X144457143Y-98585649D01*
X144457143Y-98585649D02*
X144438095Y-98509459D01*
X144438095Y-98509459D02*
X144438095Y-98452316D01*
X144438095Y-98452316D02*
X144457143Y-98376125D01*
X144457143Y-98376125D02*
X144476190Y-98338030D01*
X144476190Y-98338030D02*
X144514285Y-98299935D01*
X144514285Y-98299935D02*
X144571428Y-98280887D01*
X144571428Y-98280887D02*
X144609524Y-98280887D01*
X144609524Y-98280887D02*
X144666666Y-98299935D01*
X144666666Y-98299935D02*
X144685714Y-98318982D01*
X144857143Y-98528506D02*
X145161905Y-98528506D01*
X145580952Y-98680887D02*
X145447619Y-98490411D01*
X145352381Y-98680887D02*
X145352381Y-98280887D01*
X145352381Y-98280887D02*
X145504762Y-98280887D01*
X145504762Y-98280887D02*
X145542857Y-98299935D01*
X145542857Y-98299935D02*
X145561904Y-98318982D01*
X145561904Y-98318982D02*
X145580952Y-98357078D01*
X145580952Y-98357078D02*
X145580952Y-98414220D01*
X145580952Y-98414220D02*
X145561904Y-98452316D01*
X145561904Y-98452316D02*
X145542857Y-98471363D01*
X145542857Y-98471363D02*
X145504762Y-98490411D01*
X145504762Y-98490411D02*
X145352381Y-98490411D01*
X145942857Y-98280887D02*
X145752381Y-98280887D01*
X145752381Y-98280887D02*
X145733333Y-98471363D01*
X145733333Y-98471363D02*
X145752381Y-98452316D01*
X145752381Y-98452316D02*
X145790476Y-98433268D01*
X145790476Y-98433268D02*
X145885714Y-98433268D01*
X145885714Y-98433268D02*
X145923809Y-98452316D01*
X145923809Y-98452316D02*
X145942857Y-98471363D01*
X145942857Y-98471363D02*
X145961904Y-98509459D01*
X145961904Y-98509459D02*
X145961904Y-98604697D01*
X145961904Y-98604697D02*
X145942857Y-98642792D01*
X145942857Y-98642792D02*
X145923809Y-98661840D01*
X145923809Y-98661840D02*
X145885714Y-98680887D01*
X145885714Y-98680887D02*
X145790476Y-98680887D01*
X145790476Y-98680887D02*
X145752381Y-98661840D01*
X145752381Y-98661840D02*
X145733333Y-98642792D01*
X166680887Y-103076189D02*
X166280887Y-103076189D01*
X166680887Y-102885713D02*
X166280887Y-102885713D01*
X166280887Y-102885713D02*
X166566601Y-102752380D01*
X166566601Y-102752380D02*
X166280887Y-102619047D01*
X166280887Y-102619047D02*
X166680887Y-102619047D01*
X166280887Y-102428570D02*
X166604697Y-102428570D01*
X166604697Y-102428570D02*
X166642792Y-102409523D01*
X166642792Y-102409523D02*
X166661840Y-102390475D01*
X166661840Y-102390475D02*
X166680887Y-102352380D01*
X166680887Y-102352380D02*
X166680887Y-102276189D01*
X166680887Y-102276189D02*
X166661840Y-102238094D01*
X166661840Y-102238094D02*
X166642792Y-102219047D01*
X166642792Y-102219047D02*
X166604697Y-102199999D01*
X166604697Y-102199999D02*
X166280887Y-102199999D01*
X166528506Y-102009522D02*
X166528506Y-101704761D01*
X166642792Y-101285713D02*
X166661840Y-101304761D01*
X166661840Y-101304761D02*
X166680887Y-101361903D01*
X166680887Y-101361903D02*
X166680887Y-101399999D01*
X166680887Y-101399999D02*
X166661840Y-101457142D01*
X166661840Y-101457142D02*
X166623744Y-101495237D01*
X166623744Y-101495237D02*
X166585649Y-101514284D01*
X166585649Y-101514284D02*
X166509459Y-101533332D01*
X166509459Y-101533332D02*
X166452316Y-101533332D01*
X166452316Y-101533332D02*
X166376125Y-101514284D01*
X166376125Y-101514284D02*
X166338030Y-101495237D01*
X166338030Y-101495237D02*
X166299935Y-101457142D01*
X166299935Y-101457142D02*
X166280887Y-101399999D01*
X166280887Y-101399999D02*
X166280887Y-101361903D01*
X166280887Y-101361903D02*
X166299935Y-101304761D01*
X166299935Y-101304761D02*
X166318982Y-101285713D01*
X166280887Y-100942856D02*
X166280887Y-101019046D01*
X166280887Y-101019046D02*
X166299935Y-101057142D01*
X166299935Y-101057142D02*
X166318982Y-101076189D01*
X166318982Y-101076189D02*
X166376125Y-101114284D01*
X166376125Y-101114284D02*
X166452316Y-101133332D01*
X166452316Y-101133332D02*
X166604697Y-101133332D01*
X166604697Y-101133332D02*
X166642792Y-101114284D01*
X166642792Y-101114284D02*
X166661840Y-101095237D01*
X166661840Y-101095237D02*
X166680887Y-101057142D01*
X166680887Y-101057142D02*
X166680887Y-100980951D01*
X166680887Y-100980951D02*
X166661840Y-100942856D01*
X166661840Y-100942856D02*
X166642792Y-100923808D01*
X166642792Y-100923808D02*
X166604697Y-100904761D01*
X166604697Y-100904761D02*
X166509459Y-100904761D01*
X166509459Y-100904761D02*
X166471363Y-100923808D01*
X166471363Y-100923808D02*
X166452316Y-100942856D01*
X166452316Y-100942856D02*
X166433268Y-100980951D01*
X166433268Y-100980951D02*
X166433268Y-101057142D01*
X166433268Y-101057142D02*
X166452316Y-101095237D01*
X166452316Y-101095237D02*
X166471363Y-101114284D01*
X166471363Y-101114284D02*
X166509459Y-101133332D01*
X161780887Y-82804761D02*
X162104697Y-82804761D01*
X162104697Y-82804761D02*
X162142792Y-82785714D01*
X162142792Y-82785714D02*
X162161840Y-82766666D01*
X162161840Y-82766666D02*
X162180887Y-82728571D01*
X162180887Y-82728571D02*
X162180887Y-82652380D01*
X162180887Y-82652380D02*
X162161840Y-82614285D01*
X162161840Y-82614285D02*
X162142792Y-82595238D01*
X162142792Y-82595238D02*
X162104697Y-82576190D01*
X162104697Y-82576190D02*
X161780887Y-82576190D01*
X162180887Y-82176190D02*
X162180887Y-82404761D01*
X162180887Y-82290475D02*
X161780887Y-82290475D01*
X161780887Y-82290475D02*
X161838030Y-82328571D01*
X161838030Y-82328571D02*
X161876125Y-82366666D01*
X161876125Y-82366666D02*
X161895173Y-82404761D01*
D10*
X139238095Y-76957419D02*
X139238095Y-75957419D01*
X139238095Y-76433609D02*
X139809523Y-76433609D01*
X139809523Y-76957419D02*
X139809523Y-75957419D01*
X140809523Y-76957419D02*
X140238095Y-76957419D01*
X140523809Y-76957419D02*
X140523809Y-75957419D01*
X140523809Y-75957419D02*
X140428571Y-76100276D01*
X140428571Y-76100276D02*
X140333333Y-76195514D01*
X140333333Y-76195514D02*
X140238095Y-76243133D01*
D11*
X144704762Y-80180887D02*
X144571429Y-79990411D01*
X144476191Y-80180887D02*
X144476191Y-79780887D01*
X144476191Y-79780887D02*
X144628572Y-79780887D01*
X144628572Y-79780887D02*
X144666667Y-79799935D01*
X144666667Y-79799935D02*
X144685714Y-79818982D01*
X144685714Y-79818982D02*
X144704762Y-79857078D01*
X144704762Y-79857078D02*
X144704762Y-79914220D01*
X144704762Y-79914220D02*
X144685714Y-79952316D01*
X144685714Y-79952316D02*
X144666667Y-79971363D01*
X144666667Y-79971363D02*
X144628572Y-79990411D01*
X144628572Y-79990411D02*
X144476191Y-79990411D01*
X144876191Y-79971363D02*
X145009524Y-79971363D01*
X145066667Y-80180887D02*
X144876191Y-80180887D01*
X144876191Y-80180887D02*
X144876191Y-79780887D01*
X144876191Y-79780887D02*
X145066667Y-79780887D01*
X145447619Y-79799935D02*
X145409524Y-79780887D01*
X145409524Y-79780887D02*
X145352381Y-79780887D01*
X145352381Y-79780887D02*
X145295238Y-79799935D01*
X145295238Y-79799935D02*
X145257143Y-79838030D01*
X145257143Y-79838030D02*
X145238096Y-79876125D01*
X145238096Y-79876125D02*
X145219048Y-79952316D01*
X145219048Y-79952316D02*
X145219048Y-80009459D01*
X145219048Y-80009459D02*
X145238096Y-80085649D01*
X145238096Y-80085649D02*
X145257143Y-80123744D01*
X145257143Y-80123744D02*
X145295238Y-80161840D01*
X145295238Y-80161840D02*
X145352381Y-80180887D01*
X145352381Y-80180887D02*
X145390477Y-80180887D01*
X145390477Y-80180887D02*
X145447619Y-80161840D01*
X145447619Y-80161840D02*
X145466667Y-80142792D01*
X145466667Y-80142792D02*
X145466667Y-80009459D01*
X145466667Y-80009459D02*
X145390477Y-80009459D01*
X145638096Y-79780887D02*
X145638096Y-80104697D01*
X145638096Y-80104697D02*
X145657143Y-80142792D01*
X145657143Y-80142792D02*
X145676191Y-80161840D01*
X145676191Y-80161840D02*
X145714286Y-80180887D01*
X145714286Y-80180887D02*
X145790477Y-80180887D01*
X145790477Y-80180887D02*
X145828572Y-80161840D01*
X145828572Y-80161840D02*
X145847619Y-80142792D01*
X145847619Y-80142792D02*
X145866667Y-80104697D01*
X145866667Y-80104697D02*
X145866667Y-79780887D01*
X146057144Y-80028506D02*
X146361906Y-80028506D01*
X146780953Y-80142792D02*
X146761905Y-80161840D01*
X146761905Y-80161840D02*
X146704763Y-80180887D01*
X146704763Y-80180887D02*
X146666667Y-80180887D01*
X146666667Y-80180887D02*
X146609524Y-80161840D01*
X146609524Y-80161840D02*
X146571429Y-80123744D01*
X146571429Y-80123744D02*
X146552382Y-80085649D01*
X146552382Y-80085649D02*
X146533334Y-80009459D01*
X146533334Y-80009459D02*
X146533334Y-79952316D01*
X146533334Y-79952316D02*
X146552382Y-79876125D01*
X146552382Y-79876125D02*
X146571429Y-79838030D01*
X146571429Y-79838030D02*
X146609524Y-79799935D01*
X146609524Y-79799935D02*
X146666667Y-79780887D01*
X146666667Y-79780887D02*
X146704763Y-79780887D01*
X146704763Y-79780887D02*
X146761905Y-79799935D01*
X146761905Y-79799935D02*
X146780953Y-79818982D01*
X146933334Y-79818982D02*
X146952382Y-79799935D01*
X146952382Y-79799935D02*
X146990477Y-79780887D01*
X146990477Y-79780887D02*
X147085715Y-79780887D01*
X147085715Y-79780887D02*
X147123810Y-79799935D01*
X147123810Y-79799935D02*
X147142858Y-79818982D01*
X147142858Y-79818982D02*
X147161905Y-79857078D01*
X147161905Y-79857078D02*
X147161905Y-79895173D01*
X147161905Y-79895173D02*
X147142858Y-79952316D01*
X147142858Y-79952316D02*
X146914286Y-80180887D01*
X146914286Y-80180887D02*
X147161905Y-80180887D01*
X147409524Y-79780887D02*
X147447619Y-79780887D01*
X147447619Y-79780887D02*
X147485715Y-79799935D01*
X147485715Y-79799935D02*
X147504762Y-79818982D01*
X147504762Y-79818982D02*
X147523810Y-79857078D01*
X147523810Y-79857078D02*
X147542857Y-79933268D01*
X147542857Y-79933268D02*
X147542857Y-80028506D01*
X147542857Y-80028506D02*
X147523810Y-80104697D01*
X147523810Y-80104697D02*
X147504762Y-80142792D01*
X147504762Y-80142792D02*
X147485715Y-80161840D01*
X147485715Y-80161840D02*
X147447619Y-80180887D01*
X147447619Y-80180887D02*
X147409524Y-80180887D01*
X147409524Y-80180887D02*
X147371429Y-80161840D01*
X147371429Y-80161840D02*
X147352381Y-80142792D01*
X147352381Y-80142792D02*
X147333334Y-80104697D01*
X147333334Y-80104697D02*
X147314286Y-80028506D01*
X147314286Y-80028506D02*
X147314286Y-79933268D01*
X147314286Y-79933268D02*
X147333334Y-79857078D01*
X147333334Y-79857078D02*
X147352381Y-79818982D01*
X147352381Y-79818982D02*
X147371429Y-79799935D01*
X147371429Y-79799935D02*
X147409524Y-79780887D01*
X169319047Y-96621363D02*
X169376190Y-96640411D01*
X169376190Y-96640411D02*
X169395237Y-96659459D01*
X169395237Y-96659459D02*
X169414285Y-96697554D01*
X169414285Y-96697554D02*
X169414285Y-96754697D01*
X169414285Y-96754697D02*
X169395237Y-96792792D01*
X169395237Y-96792792D02*
X169376190Y-96811840D01*
X169376190Y-96811840D02*
X169338095Y-96830887D01*
X169338095Y-96830887D02*
X169185714Y-96830887D01*
X169185714Y-96830887D02*
X169185714Y-96430887D01*
X169185714Y-96430887D02*
X169319047Y-96430887D01*
X169319047Y-96430887D02*
X169357142Y-96449935D01*
X169357142Y-96449935D02*
X169376190Y-96468982D01*
X169376190Y-96468982D02*
X169395237Y-96507078D01*
X169395237Y-96507078D02*
X169395237Y-96545173D01*
X169395237Y-96545173D02*
X169376190Y-96583268D01*
X169376190Y-96583268D02*
X169357142Y-96602316D01*
X169357142Y-96602316D02*
X169319047Y-96621363D01*
X169319047Y-96621363D02*
X169185714Y-96621363D01*
X169661904Y-96430887D02*
X169738095Y-96430887D01*
X169738095Y-96430887D02*
X169776190Y-96449935D01*
X169776190Y-96449935D02*
X169814285Y-96488030D01*
X169814285Y-96488030D02*
X169833333Y-96564220D01*
X169833333Y-96564220D02*
X169833333Y-96697554D01*
X169833333Y-96697554D02*
X169814285Y-96773744D01*
X169814285Y-96773744D02*
X169776190Y-96811840D01*
X169776190Y-96811840D02*
X169738095Y-96830887D01*
X169738095Y-96830887D02*
X169661904Y-96830887D01*
X169661904Y-96830887D02*
X169623809Y-96811840D01*
X169623809Y-96811840D02*
X169585714Y-96773744D01*
X169585714Y-96773744D02*
X169566666Y-96697554D01*
X169566666Y-96697554D02*
X169566666Y-96564220D01*
X169566666Y-96564220D02*
X169585714Y-96488030D01*
X169585714Y-96488030D02*
X169623809Y-96449935D01*
X169623809Y-96449935D02*
X169661904Y-96430887D01*
X170080952Y-96430887D02*
X170157143Y-96430887D01*
X170157143Y-96430887D02*
X170195238Y-96449935D01*
X170195238Y-96449935D02*
X170233333Y-96488030D01*
X170233333Y-96488030D02*
X170252381Y-96564220D01*
X170252381Y-96564220D02*
X170252381Y-96697554D01*
X170252381Y-96697554D02*
X170233333Y-96773744D01*
X170233333Y-96773744D02*
X170195238Y-96811840D01*
X170195238Y-96811840D02*
X170157143Y-96830887D01*
X170157143Y-96830887D02*
X170080952Y-96830887D01*
X170080952Y-96830887D02*
X170042857Y-96811840D01*
X170042857Y-96811840D02*
X170004762Y-96773744D01*
X170004762Y-96773744D02*
X169985714Y-96697554D01*
X169985714Y-96697554D02*
X169985714Y-96564220D01*
X169985714Y-96564220D02*
X170004762Y-96488030D01*
X170004762Y-96488030D02*
X170042857Y-96449935D01*
X170042857Y-96449935D02*
X170080952Y-96430887D01*
X170366667Y-96430887D02*
X170595238Y-96430887D01*
X170480952Y-96830887D02*
X170480952Y-96430887D01*
X170728572Y-96678506D02*
X171033334Y-96678506D01*
X171452381Y-96830887D02*
X171319048Y-96640411D01*
X171223810Y-96830887D02*
X171223810Y-96430887D01*
X171223810Y-96430887D02*
X171376191Y-96430887D01*
X171376191Y-96430887D02*
X171414286Y-96449935D01*
X171414286Y-96449935D02*
X171433333Y-96468982D01*
X171433333Y-96468982D02*
X171452381Y-96507078D01*
X171452381Y-96507078D02*
X171452381Y-96564220D01*
X171452381Y-96564220D02*
X171433333Y-96602316D01*
X171433333Y-96602316D02*
X171414286Y-96621363D01*
X171414286Y-96621363D02*
X171376191Y-96640411D01*
X171376191Y-96640411D02*
X171223810Y-96640411D01*
X171604762Y-96468982D02*
X171623810Y-96449935D01*
X171623810Y-96449935D02*
X171661905Y-96430887D01*
X171661905Y-96430887D02*
X171757143Y-96430887D01*
X171757143Y-96430887D02*
X171795238Y-96449935D01*
X171795238Y-96449935D02*
X171814286Y-96468982D01*
X171814286Y-96468982D02*
X171833333Y-96507078D01*
X171833333Y-96507078D02*
X171833333Y-96545173D01*
X171833333Y-96545173D02*
X171814286Y-96602316D01*
X171814286Y-96602316D02*
X171585714Y-96830887D01*
X171585714Y-96830887D02*
X171833333Y-96830887D01*
X138114286Y-102180887D02*
X137980953Y-101990411D01*
X137885715Y-102180887D02*
X137885715Y-101780887D01*
X137885715Y-101780887D02*
X138038096Y-101780887D01*
X138038096Y-101780887D02*
X138076191Y-101799935D01*
X138076191Y-101799935D02*
X138095238Y-101818982D01*
X138095238Y-101818982D02*
X138114286Y-101857078D01*
X138114286Y-101857078D02*
X138114286Y-101914220D01*
X138114286Y-101914220D02*
X138095238Y-101952316D01*
X138095238Y-101952316D02*
X138076191Y-101971363D01*
X138076191Y-101971363D02*
X138038096Y-101990411D01*
X138038096Y-101990411D02*
X137885715Y-101990411D01*
X138285715Y-101971363D02*
X138419048Y-101971363D01*
X138476191Y-102180887D02*
X138285715Y-102180887D01*
X138285715Y-102180887D02*
X138285715Y-101780887D01*
X138285715Y-101780887D02*
X138476191Y-101780887D01*
X138628572Y-102161840D02*
X138685715Y-102180887D01*
X138685715Y-102180887D02*
X138780953Y-102180887D01*
X138780953Y-102180887D02*
X138819048Y-102161840D01*
X138819048Y-102161840D02*
X138838096Y-102142792D01*
X138838096Y-102142792D02*
X138857143Y-102104697D01*
X138857143Y-102104697D02*
X138857143Y-102066601D01*
X138857143Y-102066601D02*
X138838096Y-102028506D01*
X138838096Y-102028506D02*
X138819048Y-102009459D01*
X138819048Y-102009459D02*
X138780953Y-101990411D01*
X138780953Y-101990411D02*
X138704762Y-101971363D01*
X138704762Y-101971363D02*
X138666667Y-101952316D01*
X138666667Y-101952316D02*
X138647620Y-101933268D01*
X138647620Y-101933268D02*
X138628572Y-101895173D01*
X138628572Y-101895173D02*
X138628572Y-101857078D01*
X138628572Y-101857078D02*
X138647620Y-101818982D01*
X138647620Y-101818982D02*
X138666667Y-101799935D01*
X138666667Y-101799935D02*
X138704762Y-101780887D01*
X138704762Y-101780887D02*
X138800001Y-101780887D01*
X138800001Y-101780887D02*
X138857143Y-101799935D01*
X139028572Y-102028506D02*
X139333334Y-102028506D01*
X139752381Y-102142792D02*
X139733333Y-102161840D01*
X139733333Y-102161840D02*
X139676191Y-102180887D01*
X139676191Y-102180887D02*
X139638095Y-102180887D01*
X139638095Y-102180887D02*
X139580952Y-102161840D01*
X139580952Y-102161840D02*
X139542857Y-102123744D01*
X139542857Y-102123744D02*
X139523810Y-102085649D01*
X139523810Y-102085649D02*
X139504762Y-102009459D01*
X139504762Y-102009459D02*
X139504762Y-101952316D01*
X139504762Y-101952316D02*
X139523810Y-101876125D01*
X139523810Y-101876125D02*
X139542857Y-101838030D01*
X139542857Y-101838030D02*
X139580952Y-101799935D01*
X139580952Y-101799935D02*
X139638095Y-101780887D01*
X139638095Y-101780887D02*
X139676191Y-101780887D01*
X139676191Y-101780887D02*
X139733333Y-101799935D01*
X139733333Y-101799935D02*
X139752381Y-101818982D01*
X140114286Y-101780887D02*
X139923810Y-101780887D01*
X139923810Y-101780887D02*
X139904762Y-101971363D01*
X139904762Y-101971363D02*
X139923810Y-101952316D01*
X139923810Y-101952316D02*
X139961905Y-101933268D01*
X139961905Y-101933268D02*
X140057143Y-101933268D01*
X140057143Y-101933268D02*
X140095238Y-101952316D01*
X140095238Y-101952316D02*
X140114286Y-101971363D01*
X140114286Y-101971363D02*
X140133333Y-102009459D01*
X140133333Y-102009459D02*
X140133333Y-102104697D01*
X140133333Y-102104697D02*
X140114286Y-102142792D01*
X140114286Y-102142792D02*
X140095238Y-102161840D01*
X140095238Y-102161840D02*
X140057143Y-102180887D01*
X140057143Y-102180887D02*
X139961905Y-102180887D01*
X139961905Y-102180887D02*
X139923810Y-102161840D01*
X139923810Y-102161840D02*
X139904762Y-102142792D01*
X164395239Y-108680887D02*
X164395239Y-108280887D01*
X164395239Y-108280887D02*
X164547620Y-108280887D01*
X164547620Y-108280887D02*
X164585715Y-108299935D01*
X164585715Y-108299935D02*
X164604762Y-108318982D01*
X164604762Y-108318982D02*
X164623810Y-108357078D01*
X164623810Y-108357078D02*
X164623810Y-108414220D01*
X164623810Y-108414220D02*
X164604762Y-108452316D01*
X164604762Y-108452316D02*
X164585715Y-108471363D01*
X164585715Y-108471363D02*
X164547620Y-108490411D01*
X164547620Y-108490411D02*
X164395239Y-108490411D01*
X164776191Y-108566601D02*
X164966667Y-108566601D01*
X164738096Y-108680887D02*
X164871429Y-108280887D01*
X164871429Y-108280887D02*
X165004762Y-108680887D01*
X165119048Y-108318982D02*
X165138096Y-108299935D01*
X165138096Y-108299935D02*
X165176191Y-108280887D01*
X165176191Y-108280887D02*
X165271429Y-108280887D01*
X165271429Y-108280887D02*
X165309524Y-108299935D01*
X165309524Y-108299935D02*
X165328572Y-108318982D01*
X165328572Y-108318982D02*
X165347619Y-108357078D01*
X165347619Y-108357078D02*
X165347619Y-108395173D01*
X165347619Y-108395173D02*
X165328572Y-108452316D01*
X165328572Y-108452316D02*
X165100000Y-108680887D01*
X165100000Y-108680887D02*
X165347619Y-108680887D01*
X165519048Y-108528506D02*
X165823810Y-108528506D01*
X166242857Y-108680887D02*
X166109524Y-108490411D01*
X166014286Y-108680887D02*
X166014286Y-108280887D01*
X166014286Y-108280887D02*
X166166667Y-108280887D01*
X166166667Y-108280887D02*
X166204762Y-108299935D01*
X166204762Y-108299935D02*
X166223809Y-108318982D01*
X166223809Y-108318982D02*
X166242857Y-108357078D01*
X166242857Y-108357078D02*
X166242857Y-108414220D01*
X166242857Y-108414220D02*
X166223809Y-108452316D01*
X166223809Y-108452316D02*
X166204762Y-108471363D01*
X166204762Y-108471363D02*
X166166667Y-108490411D01*
X166166667Y-108490411D02*
X166014286Y-108490411D01*
X166471428Y-108452316D02*
X166433333Y-108433268D01*
X166433333Y-108433268D02*
X166414286Y-108414220D01*
X166414286Y-108414220D02*
X166395238Y-108376125D01*
X166395238Y-108376125D02*
X166395238Y-108357078D01*
X166395238Y-108357078D02*
X166414286Y-108318982D01*
X166414286Y-108318982D02*
X166433333Y-108299935D01*
X166433333Y-108299935D02*
X166471428Y-108280887D01*
X166471428Y-108280887D02*
X166547619Y-108280887D01*
X166547619Y-108280887D02*
X166585714Y-108299935D01*
X166585714Y-108299935D02*
X166604762Y-108318982D01*
X166604762Y-108318982D02*
X166623809Y-108357078D01*
X166623809Y-108357078D02*
X166623809Y-108376125D01*
X166623809Y-108376125D02*
X166604762Y-108414220D01*
X166604762Y-108414220D02*
X166585714Y-108433268D01*
X166585714Y-108433268D02*
X166547619Y-108452316D01*
X166547619Y-108452316D02*
X166471428Y-108452316D01*
X166471428Y-108452316D02*
X166433333Y-108471363D01*
X166433333Y-108471363D02*
X166414286Y-108490411D01*
X166414286Y-108490411D02*
X166395238Y-108528506D01*
X166395238Y-108528506D02*
X166395238Y-108604697D01*
X166395238Y-108604697D02*
X166414286Y-108642792D01*
X166414286Y-108642792D02*
X166433333Y-108661840D01*
X166433333Y-108661840D02*
X166471428Y-108680887D01*
X166471428Y-108680887D02*
X166547619Y-108680887D01*
X166547619Y-108680887D02*
X166585714Y-108661840D01*
X166585714Y-108661840D02*
X166604762Y-108642792D01*
X166604762Y-108642792D02*
X166623809Y-108604697D01*
X166623809Y-108604697D02*
X166623809Y-108528506D01*
X166623809Y-108528506D02*
X166604762Y-108490411D01*
X166604762Y-108490411D02*
X166585714Y-108471363D01*
X166585714Y-108471363D02*
X166547619Y-108452316D01*
%TO.C,ROSC-R6*%
D14*
X162265000Y-110772936D02*
X162265000Y-111227064D01*
X163735000Y-110772936D02*
X163735000Y-111227064D01*
%TO.C,REGU-C11*%
X150090000Y-86288748D02*
X150090000Y-87711252D01*
X151910000Y-86288748D02*
X151910000Y-87711252D01*
%TO.C,VDD-C17*%
X159090000Y-111711252D02*
X159090000Y-110288748D01*
X160910000Y-111711252D02*
X160910000Y-110288748D01*
%TO.C,SW7*%
X143350000Y-100600000D02*
X143350000Y-100900000D01*
X143350000Y-103400000D02*
X143350000Y-103100000D01*
X146650000Y-100600000D02*
X143350000Y-100600000D01*
X146650000Y-100900000D02*
X146650000Y-100600000D01*
X146650000Y-103100000D02*
X146650000Y-103400000D01*
X146650000Y-103400000D02*
X143350000Y-103400000D01*
%TO.C,RC-C8*%
X138288748Y-96590000D02*
X139711252Y-96590000D01*
X138288748Y-98410000D02*
X139711252Y-98410000D01*
%TO.C,U3*%
D15*
X142830200Y-89141600D02*
X147097400Y-89141600D01*
X147097400Y-83858400D02*
X142830200Y-83858400D01*
%TO.C,REGU-C9*%
D14*
X136090000Y-87211252D02*
X136090000Y-85788748D01*
X137910000Y-87211252D02*
X137910000Y-85788748D01*
%TO.C,IMU-C15*%
X167090000Y-87211252D02*
X167090000Y-85788748D01*
X168910000Y-87211252D02*
X168910000Y-85788748D01*
%TO.C,MCU-C19*%
X139773752Y-103090000D02*
X138351248Y-103090000D01*
X139773752Y-104910000D02*
X138351248Y-104910000D01*
%TO.C,TANK-C4*%
X144090000Y-110288748D02*
X144090000Y-111711252D01*
X145910000Y-110288748D02*
X145910000Y-111711252D01*
%TO.C,IC2*%
D16*
X153600000Y-96112000D02*
X159900000Y-96112000D01*
X153600000Y-102412000D02*
X153600000Y-96112000D01*
X159900000Y-96112000D02*
X159900000Y-102412000D01*
X159900000Y-102412000D02*
X153600000Y-102412000D01*
D12*
X153375000Y-103987000D02*
G75*
G02*
X153125000Y-103987000I-125000J0D01*
G01*
X153125000Y-103987000D02*
G75*
G02*
X153375000Y-103987000I125000J0D01*
G01*
%TO.C,SW6*%
D14*
X168850000Y-90600000D02*
X172150000Y-90600000D01*
X168850000Y-90900000D02*
X168850000Y-90600000D01*
X168850000Y-93100000D02*
X168850000Y-93400000D01*
X168850000Y-93400000D02*
X172150000Y-93400000D01*
X172150000Y-90600000D02*
X172150000Y-90900000D01*
X172150000Y-93400000D02*
X172150000Y-93100000D01*
%TO.C,J1*%
X150390000Y-78160000D02*
X150390000Y-80660000D01*
X150390000Y-80660000D02*
X151440000Y-80660000D01*
X159440000Y-76190000D02*
X151560000Y-76190000D01*
X159560000Y-80660000D02*
X159560000Y-81650000D01*
X160610000Y-78160000D02*
X160610000Y-80660000D01*
X160610000Y-80660000D02*
X159560000Y-80660000D01*
%TO.C,PA1-R4*%
X153265000Y-111272936D02*
X153265000Y-111727064D01*
X154735000Y-111272936D02*
X154735000Y-111727064D01*
%TO.C,RES-R1*%
X140227064Y-92765000D02*
X139772936Y-92765000D01*
X140227064Y-94235000D02*
X139772936Y-94235000D01*
%TO.C,IMU-C7*%
X171090000Y-102711252D02*
X171090000Y-101288748D01*
X172910000Y-102711252D02*
X172910000Y-101288748D01*
%TO.C,MCU-R7*%
X145227064Y-92765000D02*
X144772936Y-92765000D01*
X145227064Y-94235000D02*
X144772936Y-94235000D01*
%TO.C,VCORE-C16*%
X147090000Y-111711252D02*
X147090000Y-110288748D01*
X148910000Y-111711252D02*
X148910000Y-110288748D01*
%TO.C,PA0-R3*%
X150265000Y-111272936D02*
X150265000Y-111727064D01*
X151735000Y-111272936D02*
X151735000Y-111727064D01*
%TO.C,VSS-C18*%
X156090000Y-111711252D02*
X156090000Y-110288748D01*
X157910000Y-111711252D02*
X157910000Y-110288748D01*
%TO.C,RC-R5*%
X145227064Y-96265000D02*
X144772936Y-96265000D01*
X145227064Y-97735000D02*
X144772936Y-97735000D01*
%TO.C,IMU-C6*%
X167090000Y-102711252D02*
X167090000Y-101288748D01*
X168910000Y-102711252D02*
X168910000Y-101288748D01*
D17*
%TO.C,G\u002A\u002A\u002A*%
G36*
X160193550Y-85057567D02*
G01*
X160239504Y-85096132D01*
X160273232Y-85143799D01*
X160282461Y-85177573D01*
X160265682Y-85232255D01*
X160223127Y-85271625D01*
X160166471Y-85291533D01*
X160107385Y-85287827D01*
X160058355Y-85257262D01*
X160029291Y-85200881D01*
X160030451Y-85140195D01*
X160057181Y-85086302D01*
X160104826Y-85050303D01*
X160148745Y-85041692D01*
X160193550Y-85057567D01*
G37*
G36*
X160211667Y-91720184D02*
G01*
X160255505Y-91761091D01*
X160273552Y-91816939D01*
X160260521Y-91877642D01*
X160248399Y-91897155D01*
X160197128Y-91940741D01*
X160137129Y-91955133D01*
X160080535Y-91938813D01*
X160059213Y-91920826D01*
X160028588Y-91863231D01*
X160028497Y-91802222D01*
X160054578Y-91748516D01*
X160102471Y-91712829D01*
X160147325Y-91704307D01*
X160211667Y-91720184D01*
G37*
G36*
X153907284Y-85058779D02*
G01*
X153953252Y-85101261D01*
X153975859Y-85155967D01*
X153976423Y-85165635D01*
X153960189Y-85229559D01*
X153918529Y-85273882D01*
X153862004Y-85294234D01*
X153801173Y-85286242D01*
X153756615Y-85256615D01*
X153727316Y-85213723D01*
X153717538Y-85177573D01*
X153733160Y-85132042D01*
X153771111Y-85085345D01*
X153818018Y-85051071D01*
X153851255Y-85041692D01*
X153907284Y-85058779D01*
G37*
G36*
X153914656Y-91720747D02*
G01*
X153955408Y-91762639D01*
X153974068Y-91819325D01*
X153966283Y-91879844D01*
X153941645Y-91919878D01*
X153888335Y-91953498D01*
X153827720Y-91953867D01*
X153771598Y-91921825D01*
X153758033Y-91906826D01*
X153726681Y-91861315D01*
X153720088Y-91826334D01*
X153735832Y-91784340D01*
X153740002Y-91776292D01*
X153775929Y-91726972D01*
X153823540Y-91706799D01*
X153856164Y-91704607D01*
X153914656Y-91720747D01*
G37*
G36*
X159655156Y-92269704D02*
G01*
X159702756Y-92293698D01*
X159747466Y-92322818D01*
X159850533Y-92389029D01*
X159945119Y-92430733D01*
X160046959Y-92454094D01*
X160097984Y-92460137D01*
X160250895Y-92455396D01*
X160397501Y-92412521D01*
X160535197Y-92332282D01*
X160537526Y-92330539D01*
X160598011Y-92288121D01*
X160638468Y-92268721D01*
X160667486Y-92268752D01*
X160676310Y-92272571D01*
X160708748Y-92305049D01*
X160703545Y-92347412D01*
X160660798Y-92399403D01*
X160614013Y-92437441D01*
X160468962Y-92522235D01*
X160310903Y-92576072D01*
X160148411Y-92596952D01*
X159990269Y-92582921D01*
X159896828Y-92556060D01*
X159808292Y-92517667D01*
X159729108Y-92471640D01*
X159663722Y-92421877D01*
X159616580Y-92372277D01*
X159592128Y-92326739D01*
X159594812Y-92289161D01*
X159626862Y-92264264D01*
X159655156Y-92269704D01*
G37*
G36*
X160293516Y-84419492D02*
G01*
X160421307Y-84452935D01*
X160543327Y-84514440D01*
X160614013Y-84562558D01*
X160680635Y-84620550D01*
X160709776Y-84669079D01*
X160701338Y-84707886D01*
X160676310Y-84727428D01*
X160649229Y-84733272D01*
X160613644Y-84720910D01*
X160560963Y-84686754D01*
X160537526Y-84669460D01*
X160399727Y-84588671D01*
X160253493Y-84544717D01*
X160103513Y-84537624D01*
X159954473Y-84567419D01*
X159811063Y-84634130D01*
X159764692Y-84665028D01*
X159703221Y-84708674D01*
X159664740Y-84732107D01*
X159640743Y-84738245D01*
X159622723Y-84730003D01*
X159609959Y-84718091D01*
X159587373Y-84691147D01*
X159583918Y-84666908D01*
X159602977Y-84637184D01*
X159647931Y-84593786D01*
X159669010Y-84575081D01*
X159787057Y-84490751D01*
X159917459Y-84437298D01*
X160067519Y-84412185D01*
X160145692Y-84409450D01*
X160293516Y-84419492D01*
G37*
G36*
X153386449Y-92279114D02*
G01*
X153439196Y-92313351D01*
X153462036Y-92330211D01*
X153601130Y-92412723D01*
X153746348Y-92457156D01*
X153895059Y-92463514D01*
X154044634Y-92431801D01*
X154192441Y-92362021D01*
X154242801Y-92328938D01*
X154312710Y-92284444D01*
X154360789Y-92267253D01*
X154392445Y-92276650D01*
X154411124Y-92306626D01*
X154405010Y-92340356D01*
X154371155Y-92385347D01*
X154316787Y-92435426D01*
X154249136Y-92484419D01*
X154175431Y-92526153D01*
X154132176Y-92544818D01*
X153994821Y-92581663D01*
X153849946Y-92595447D01*
X153713009Y-92585213D01*
X153662780Y-92573862D01*
X153584608Y-92549884D01*
X153522826Y-92524307D01*
X153462366Y-92489595D01*
X153388157Y-92438210D01*
X153380500Y-92432662D01*
X153316868Y-92376965D01*
X153289850Y-92329355D01*
X153299812Y-92290861D01*
X153323689Y-92272571D01*
X153350819Y-92266717D01*
X153386449Y-92279114D01*
G37*
G36*
X153963494Y-84413525D02*
G01*
X154050756Y-84427323D01*
X154132151Y-84453273D01*
X154206832Y-84489262D01*
X154279242Y-84535686D01*
X154342242Y-84586398D01*
X154388692Y-84635255D01*
X154411452Y-84676111D01*
X154411124Y-84693374D01*
X154388445Y-84726560D01*
X154353547Y-84732081D01*
X154301266Y-84709410D01*
X154252533Y-84677181D01*
X154149466Y-84610970D01*
X154054880Y-84569266D01*
X153953040Y-84545906D01*
X153902015Y-84539862D01*
X153754489Y-84544009D01*
X153612627Y-84582115D01*
X153486897Y-84651284D01*
X153479454Y-84656845D01*
X153418742Y-84702506D01*
X153380459Y-84728141D01*
X153356042Y-84737524D01*
X153336929Y-84734431D01*
X153321467Y-84726498D01*
X153290625Y-84693629D01*
X153297364Y-84650838D01*
X153341554Y-84598454D01*
X153385986Y-84562558D01*
X153510970Y-84483411D01*
X153633789Y-84434922D01*
X153768702Y-84412429D01*
X153854307Y-84409450D01*
X153963494Y-84413525D01*
G37*
G36*
X160346804Y-83929924D02*
G01*
X160381404Y-83936290D01*
X160591015Y-83996680D01*
X160781518Y-84088375D01*
X160950755Y-84207738D01*
X161096568Y-84351131D01*
X161216797Y-84514919D01*
X161309286Y-84695463D01*
X161371876Y-84889127D01*
X161402408Y-85092274D01*
X161398725Y-85301266D01*
X161358669Y-85512467D01*
X161344570Y-85559461D01*
X161267587Y-85739940D01*
X161158050Y-85911462D01*
X161022455Y-86066476D01*
X160867300Y-86197434D01*
X160717912Y-86287690D01*
X160511109Y-86370590D01*
X160300433Y-86417096D01*
X160089927Y-86426895D01*
X159883636Y-86399672D01*
X159754923Y-86362404D01*
X159681778Y-86336469D01*
X159620707Y-86314955D01*
X159582926Y-86301809D01*
X159579077Y-86300506D01*
X159556206Y-86310472D01*
X159505860Y-86345260D01*
X159429646Y-86403594D01*
X159329173Y-86484198D01*
X159206050Y-86585796D01*
X159061884Y-86707112D01*
X158997807Y-86761624D01*
X158445846Y-87232529D01*
X158445846Y-88499150D01*
X158445846Y-89765772D01*
X158993559Y-90231924D01*
X159123873Y-90341978D01*
X159243879Y-90441668D01*
X159350326Y-90528409D01*
X159439962Y-90599613D01*
X159509536Y-90652694D01*
X159555796Y-90685065D01*
X159574828Y-90694352D01*
X159608398Y-90686014D01*
X159666981Y-90667294D01*
X159739140Y-90641894D01*
X159754923Y-90636067D01*
X159819997Y-90613115D01*
X159876248Y-90597701D01*
X159934361Y-90588394D01*
X160005024Y-90583764D01*
X160098924Y-90582381D01*
X160155461Y-90582450D01*
X160264934Y-90583642D01*
X160346107Y-90587273D01*
X160409747Y-90594845D01*
X160466619Y-90607860D01*
X160527491Y-90627819D01*
X160556000Y-90638319D01*
X160758953Y-90733495D01*
X160937377Y-90855699D01*
X161089599Y-91001322D01*
X161213945Y-91166750D01*
X161308740Y-91348373D01*
X161372312Y-91542579D01*
X161402985Y-91745757D01*
X161399086Y-91954296D01*
X161358941Y-92164583D01*
X161318975Y-92284423D01*
X161222987Y-92479067D01*
X161095689Y-92652403D01*
X160940231Y-92801552D01*
X160759763Y-92923632D01*
X160557435Y-93015763D01*
X160497384Y-93035774D01*
X160326147Y-93072095D01*
X160140257Y-93083248D01*
X159954202Y-93069445D01*
X159782467Y-93030898D01*
X159764692Y-93025026D01*
X159554829Y-92933730D01*
X159369642Y-92813073D01*
X159211045Y-92665107D01*
X159080954Y-92491886D01*
X158981282Y-92295460D01*
X158925291Y-92125164D01*
X158906829Y-92019349D01*
X158897658Y-91891028D01*
X158897764Y-91822318D01*
X159150604Y-91822318D01*
X159167259Y-92006169D01*
X159218751Y-92183365D01*
X159301388Y-92348670D01*
X159411477Y-92496848D01*
X159545328Y-92622662D01*
X159699248Y-92720876D01*
X159819656Y-92771305D01*
X159984758Y-92809444D01*
X160161007Y-92820580D01*
X160335117Y-92804889D01*
X160493800Y-92762544D01*
X160494064Y-92762443D01*
X160637862Y-92697176D01*
X160758130Y-92616650D01*
X160870084Y-92510668D01*
X160870566Y-92510147D01*
X160991763Y-92356135D01*
X161076034Y-92194562D01*
X161125464Y-92020135D01*
X161142138Y-91827566D01*
X161142154Y-91820979D01*
X161123944Y-91631691D01*
X161071802Y-91455229D01*
X160989462Y-91294633D01*
X160880654Y-91152942D01*
X160749111Y-91033196D01*
X160598565Y-90938435D01*
X160432749Y-90871696D01*
X160255394Y-90836021D01*
X160070233Y-90834448D01*
X159952406Y-90852090D01*
X159881459Y-90868325D01*
X159826382Y-90883121D01*
X159797576Y-90893641D01*
X159796098Y-90894739D01*
X159803537Y-90912381D01*
X159834645Y-90946624D01*
X159878242Y-90986182D01*
X159972254Y-91065637D01*
X160151781Y-91067472D01*
X160244458Y-91070024D01*
X160312730Y-91077415D01*
X160371225Y-91092613D01*
X160434568Y-91118589D01*
X160458307Y-91129688D01*
X160568397Y-91188310D01*
X160648573Y-91244609D01*
X160696129Y-91296304D01*
X160708442Y-91340555D01*
X160688381Y-91376916D01*
X160647962Y-91386460D01*
X160595572Y-91368841D01*
X160563579Y-91346522D01*
X160443984Y-91268083D01*
X160310030Y-91216641D01*
X160226547Y-91201202D01*
X160117003Y-91189896D01*
X160315175Y-91358864D01*
X160416169Y-91447539D01*
X160490426Y-91520154D01*
X160542975Y-91583405D01*
X160578844Y-91643991D01*
X160603063Y-91708611D01*
X160615604Y-91759025D01*
X160624161Y-91882474D01*
X160599009Y-91997438D01*
X160545242Y-92100051D01*
X160467956Y-92186449D01*
X160372245Y-92252766D01*
X160263202Y-92295138D01*
X160145922Y-92309698D01*
X160025500Y-92292582D01*
X159950307Y-92263792D01*
X159916110Y-92241762D01*
X159857597Y-92198162D01*
X159779922Y-92137086D01*
X159688237Y-92062628D01*
X159587696Y-91978880D01*
X159530230Y-91930119D01*
X159414329Y-91831173D01*
X159324941Y-91756310D01*
X159258602Y-91704547D01*
X159211847Y-91674899D01*
X159181212Y-91666383D01*
X159163233Y-91678014D01*
X159154445Y-91708810D01*
X159151384Y-91757786D01*
X159150604Y-91822318D01*
X158897764Y-91822318D01*
X158897866Y-91755669D01*
X158907539Y-91628743D01*
X158922024Y-91544208D01*
X158948208Y-91432955D01*
X158852324Y-91351243D01*
X159274487Y-91351243D01*
X159280012Y-91371669D01*
X159298328Y-91390937D01*
X159344146Y-91432367D01*
X159410368Y-91490136D01*
X159491797Y-91559910D01*
X159583235Y-91637356D01*
X159679485Y-91718143D01*
X159775349Y-91797937D01*
X159865630Y-91872405D01*
X159945131Y-91937215D01*
X160008653Y-91988034D01*
X160051000Y-92020529D01*
X160064549Y-92029687D01*
X160140940Y-92050319D01*
X160220754Y-92037157D01*
X160292688Y-91992602D01*
X160306884Y-91978216D01*
X160349439Y-91905834D01*
X160361010Y-91825066D01*
X160340823Y-91748171D01*
X160323180Y-91720602D01*
X160295474Y-91691595D01*
X160243979Y-91643254D01*
X160174941Y-91581243D01*
X160094609Y-91511222D01*
X160052230Y-91475037D01*
X159818715Y-91277063D01*
X159752627Y-91333583D01*
X159690447Y-91377686D01*
X159642561Y-91389206D01*
X159603663Y-91369369D01*
X159602523Y-91368246D01*
X159582971Y-91340883D01*
X159586562Y-91313023D01*
X159616524Y-91275867D01*
X159647096Y-91246736D01*
X159715115Y-91184433D01*
X159625906Y-91109863D01*
X159536697Y-91035294D01*
X159458392Y-91110916D01*
X159399368Y-91173566D01*
X159341256Y-91243951D01*
X159320948Y-91271593D01*
X159287418Y-91321653D01*
X159274487Y-91351243D01*
X158852324Y-91351243D01*
X158419601Y-90982477D01*
X157890995Y-90532000D01*
X156991228Y-90532630D01*
X156091461Y-90533261D01*
X155632307Y-90925512D01*
X155515282Y-91025442D01*
X155405170Y-91119385D01*
X155306223Y-91203722D01*
X155222688Y-91274834D01*
X155158814Y-91329103D01*
X155118851Y-91362909D01*
X155111090Y-91369412D01*
X155049027Y-91421061D01*
X155076593Y-91538261D01*
X155094640Y-91651208D01*
X155102832Y-91784237D01*
X155101204Y-91921824D01*
X155089791Y-92048443D01*
X155075267Y-92125164D01*
X155003923Y-92330992D01*
X154900817Y-92518167D01*
X154769571Y-92683694D01*
X154613806Y-92824580D01*
X154437144Y-92937833D01*
X154243208Y-93020457D01*
X154035618Y-93069461D01*
X153918828Y-93080905D01*
X153826977Y-93082965D01*
X153737486Y-93080700D01*
X153666689Y-93074621D01*
X153654300Y-93072652D01*
X153440786Y-93015466D01*
X153246518Y-92927368D01*
X153073547Y-92811851D01*
X152923924Y-92672409D01*
X152799703Y-92512533D01*
X152702934Y-92335716D01*
X152635669Y-92145452D01*
X152599961Y-91945233D01*
X152598699Y-91820979D01*
X152857846Y-91820979D01*
X152876035Y-92015419D01*
X152928491Y-92197168D01*
X153012051Y-92362645D01*
X153123549Y-92508266D01*
X153259820Y-92630446D01*
X153417699Y-92725603D01*
X153594022Y-92790153D01*
X153736929Y-92816374D01*
X153876284Y-92820828D01*
X154022538Y-92807247D01*
X154157324Y-92777751D01*
X154201960Y-92762717D01*
X154373053Y-92677858D01*
X154522757Y-92563791D01*
X154647973Y-92425230D01*
X154745604Y-92266892D01*
X154812549Y-92093493D01*
X154845712Y-91909749D01*
X154847334Y-91780407D01*
X154841755Y-91711702D01*
X154834346Y-91659324D01*
X154826756Y-91634705D01*
X154808969Y-91643235D01*
X154765965Y-91674176D01*
X154701934Y-91724199D01*
X154621063Y-91789978D01*
X154527542Y-91868186D01*
X154456105Y-91929136D01*
X154351602Y-92017738D01*
X154252433Y-92099454D01*
X154163819Y-92170164D01*
X154090983Y-92225748D01*
X154039144Y-92262087D01*
X154020384Y-92272897D01*
X153910120Y-92304377D01*
X153787870Y-92306449D01*
X153667021Y-92279427D01*
X153628817Y-92263755D01*
X153515621Y-92191597D01*
X153433193Y-92095857D01*
X153382834Y-91978622D01*
X153368385Y-91862865D01*
X153620113Y-91862865D01*
X153637365Y-91934074D01*
X153683484Y-91993132D01*
X153748828Y-92034539D01*
X153823757Y-92052793D01*
X153898629Y-92042394D01*
X153918822Y-92033304D01*
X153944799Y-92014763D01*
X153995893Y-91974363D01*
X154067642Y-91915778D01*
X154155581Y-91842683D01*
X154255250Y-91758756D01*
X154347423Y-91680305D01*
X154733617Y-91350001D01*
X154676765Y-91268270D01*
X154626915Y-91204015D01*
X154566983Y-91136570D01*
X154542125Y-91111421D01*
X154492205Y-91068135D01*
X154452653Y-91051817D01*
X154413551Y-91063566D01*
X154364981Y-91104480D01*
X154335904Y-91134262D01*
X154280192Y-91192811D01*
X154331812Y-91226634D01*
X154387179Y-91274209D01*
X154411364Y-91321347D01*
X154401464Y-91362245D01*
X154400348Y-91363633D01*
X154368017Y-91387596D01*
X154327989Y-91384372D01*
X154273401Y-91352514D01*
X154245415Y-91330999D01*
X154169891Y-91270306D01*
X153906949Y-91496952D01*
X153806385Y-91584757D01*
X153732286Y-91653085D01*
X153680694Y-91706988D01*
X153647650Y-91751515D01*
X153629196Y-91791714D01*
X153621375Y-91832635D01*
X153620113Y-91862865D01*
X153368385Y-91862865D01*
X153365846Y-91842527D01*
X153375753Y-91739472D01*
X153408049Y-91645690D01*
X153466598Y-91554503D01*
X153555263Y-91459230D01*
X153622208Y-91399300D01*
X153692419Y-91339445D01*
X153755540Y-91285642D01*
X153803097Y-91245111D01*
X153822087Y-91228933D01*
X153844645Y-91208313D01*
X153844962Y-91198941D01*
X153817331Y-91198361D01*
X153762836Y-91203431D01*
X153638630Y-91232436D01*
X153515429Y-91290613D01*
X153436421Y-91346522D01*
X153380851Y-91380635D01*
X153334494Y-91386842D01*
X153304642Y-91365807D01*
X153297461Y-91333896D01*
X153314990Y-91288970D01*
X153362865Y-91237900D01*
X153434023Y-91185828D01*
X153521398Y-91137895D01*
X153617926Y-91099242D01*
X153621489Y-91098087D01*
X153744410Y-91068155D01*
X153863545Y-91061633D01*
X153879923Y-91062321D01*
X153947989Y-91064669D01*
X153994219Y-91059633D01*
X154033401Y-91042034D01*
X154080320Y-91006695D01*
X154110190Y-90981692D01*
X154213551Y-90894537D01*
X154126737Y-90867164D01*
X154064990Y-90854384D01*
X154658467Y-90854384D01*
X154741936Y-90942307D01*
X154798341Y-91004574D01*
X154852894Y-91069352D01*
X154879702Y-91103786D01*
X154915104Y-91147528D01*
X154939275Y-91162966D01*
X154961172Y-91155258D01*
X154964557Y-91152632D01*
X154987021Y-91133832D01*
X155035060Y-91093194D01*
X155104522Y-91034246D01*
X155191255Y-90960513D01*
X155291108Y-90875523D01*
X155399929Y-90782802D01*
X155408909Y-90775147D01*
X155822702Y-90422371D01*
X155813394Y-90414556D01*
X158183053Y-90414556D01*
X158185402Y-90433751D01*
X158204192Y-90454908D01*
X158233934Y-90482305D01*
X158286443Y-90528639D01*
X158357116Y-90590005D01*
X158441350Y-90662497D01*
X158534539Y-90742207D01*
X158632080Y-90825231D01*
X158729371Y-90907661D01*
X158821806Y-90985591D01*
X158904782Y-91055117D01*
X158973696Y-91112330D01*
X159023944Y-91153326D01*
X159050921Y-91174197D01*
X159054104Y-91176039D01*
X159071972Y-91162160D01*
X159103183Y-91126148D01*
X159120542Y-91103500D01*
X159166527Y-91045732D01*
X159223510Y-90980054D01*
X159253849Y-90947273D01*
X159298298Y-90894779D01*
X159316940Y-90858653D01*
X159314411Y-90846808D01*
X159295268Y-90830095D01*
X159250245Y-90791389D01*
X159183232Y-90734016D01*
X159098117Y-90661300D01*
X158998789Y-90576564D01*
X158889135Y-90483133D01*
X158858558Y-90457099D01*
X158421347Y-90084897D01*
X158373863Y-90180185D01*
X158328949Y-90252414D01*
X158271137Y-90323281D01*
X158247035Y-90347155D01*
X158202312Y-90388923D01*
X158183053Y-90414556D01*
X155813394Y-90414556D01*
X155751169Y-90362315D01*
X155701479Y-90310487D01*
X155650129Y-90241386D01*
X155621698Y-90194284D01*
X155563760Y-90086308D01*
X155111114Y-90470346D01*
X154658467Y-90854384D01*
X154064990Y-90854384D01*
X154034648Y-90848104D01*
X153919442Y-90838592D01*
X153795560Y-90838512D01*
X153677448Y-90847746D01*
X153579549Y-90866176D01*
X153561230Y-90871764D01*
X153377767Y-90952444D01*
X153217698Y-91061270D01*
X153083675Y-91194663D01*
X152978350Y-91349043D01*
X152904376Y-91520831D01*
X152864405Y-91706447D01*
X152857846Y-91820979D01*
X152598699Y-91820979D01*
X152597861Y-91738551D01*
X152631422Y-91528899D01*
X152671046Y-91398933D01*
X152747881Y-91227021D01*
X152848926Y-91073974D01*
X152981407Y-90928919D01*
X152987156Y-90923422D01*
X153160177Y-90784371D01*
X153348852Y-90679960D01*
X153549717Y-90610747D01*
X153759310Y-90577290D01*
X153974169Y-90580145D01*
X154190831Y-90619872D01*
X154402346Y-90695460D01*
X154421694Y-90690307D01*
X154461629Y-90665541D01*
X154523609Y-90620016D01*
X154609096Y-90552589D01*
X154719547Y-90462116D01*
X154856424Y-90347452D01*
X154978731Y-90243673D01*
X155524846Y-89778330D01*
X155526445Y-89200621D01*
X155790892Y-89200621D01*
X155791332Y-89385500D01*
X155792609Y-89541998D01*
X155794892Y-89672788D01*
X155798349Y-89780544D01*
X155803150Y-89867939D01*
X155809463Y-89937648D01*
X155817459Y-89992343D01*
X155827306Y-90034700D01*
X155839174Y-90067391D01*
X155853231Y-90093090D01*
X155869647Y-90114471D01*
X155888592Y-90134209D01*
X155900245Y-90145422D01*
X155927020Y-90170964D01*
X155951560Y-90192329D01*
X155977445Y-90209890D01*
X156008255Y-90224021D01*
X156047570Y-90235095D01*
X156098971Y-90243484D01*
X156166038Y-90249561D01*
X156252351Y-90253700D01*
X156361492Y-90256274D01*
X156497039Y-90257655D01*
X156662575Y-90258217D01*
X156861678Y-90258333D01*
X156984074Y-90258341D01*
X157231609Y-90257905D01*
X157443930Y-90256538D01*
X157620367Y-90254254D01*
X157760252Y-90251066D01*
X157862917Y-90246990D01*
X157927693Y-90242039D01*
X157951228Y-90237680D01*
X158032527Y-90189406D01*
X158105902Y-90113830D01*
X158154804Y-90033769D01*
X158161640Y-90017343D01*
X158167561Y-89997825D01*
X158172632Y-89972451D01*
X158176922Y-89938455D01*
X158180495Y-89893072D01*
X158183419Y-89833536D01*
X158185760Y-89757083D01*
X158187585Y-89660947D01*
X158188960Y-89542363D01*
X158189951Y-89398565D01*
X158190626Y-89226788D01*
X158191051Y-89024267D01*
X158191292Y-88788237D01*
X158191416Y-88515932D01*
X158191417Y-88512036D01*
X158191333Y-88218622D01*
X158190876Y-87962227D01*
X158190013Y-87740795D01*
X158188712Y-87552270D01*
X158186942Y-87394596D01*
X158184671Y-87265716D01*
X158181868Y-87163575D01*
X158178500Y-87086116D01*
X158174536Y-87031282D01*
X158169944Y-86997019D01*
X158167892Y-86988505D01*
X158121543Y-86895655D01*
X158047308Y-86815767D01*
X157956307Y-86759468D01*
X157912755Y-86744638D01*
X157870922Y-86739135D01*
X157795446Y-86734364D01*
X157691446Y-86730333D01*
X157564038Y-86727045D01*
X157418342Y-86724507D01*
X157259474Y-86722724D01*
X157092554Y-86721701D01*
X156922699Y-86721443D01*
X156755027Y-86721956D01*
X156594656Y-86723246D01*
X156446704Y-86725317D01*
X156316289Y-86728175D01*
X156208529Y-86731825D01*
X156128541Y-86736273D01*
X156081444Y-86741525D01*
X156076273Y-86742713D01*
X155994326Y-86780607D01*
X155913286Y-86843253D01*
X155847582Y-86918742D01*
X155831578Y-86944708D01*
X155825274Y-86958758D01*
X155819786Y-86978118D01*
X155815046Y-87005497D01*
X155810983Y-87043602D01*
X155807528Y-87095143D01*
X155804611Y-87162828D01*
X155802162Y-87249364D01*
X155800113Y-87357460D01*
X155798392Y-87489825D01*
X155796932Y-87649167D01*
X155795661Y-87838193D01*
X155794511Y-88059613D01*
X155793411Y-88316135D01*
X155792894Y-88448956D01*
X155791842Y-88735022D01*
X155791118Y-88984686D01*
X155790892Y-89200621D01*
X155526445Y-89200621D01*
X155528387Y-88499280D01*
X155531929Y-87220230D01*
X154988818Y-86761077D01*
X154863793Y-86656099D01*
X154747448Y-86559788D01*
X154643288Y-86474942D01*
X154554818Y-86404356D01*
X154485543Y-86350828D01*
X154438969Y-86317155D01*
X154418661Y-86306123D01*
X154388248Y-86314370D01*
X154332090Y-86332426D01*
X154261162Y-86356733D01*
X154245077Y-86362419D01*
X154044913Y-86413386D01*
X153839308Y-86427874D01*
X153633343Y-86407041D01*
X153432104Y-86352040D01*
X153240672Y-86264027D01*
X153064132Y-86144157D01*
X152987156Y-86076578D01*
X152841954Y-85913783D01*
X152730939Y-85737478D01*
X152653210Y-85551352D01*
X152607866Y-85359096D01*
X152595048Y-85179020D01*
X152857846Y-85179020D01*
X152876439Y-85370043D01*
X152930216Y-85549265D01*
X153016169Y-85713167D01*
X153131292Y-85858227D01*
X153272579Y-85980927D01*
X153437022Y-86077747D01*
X153621616Y-86145166D01*
X153698000Y-86162649D01*
X153759786Y-86167865D01*
X153846029Y-86166841D01*
X153942767Y-86160500D01*
X154036040Y-86149763D01*
X154072193Y-86142990D01*
X154660341Y-86142990D01*
X155111469Y-86527752D01*
X155562596Y-86912514D01*
X155596338Y-86837148D01*
X155628163Y-86782281D01*
X155676551Y-86716304D01*
X155720892Y-86664699D01*
X155809896Y-86569546D01*
X158170284Y-86569546D01*
X158264931Y-86670196D01*
X158317368Y-86731111D01*
X158361265Y-86791246D01*
X158385543Y-86834346D01*
X158406267Y-86876566D01*
X158423271Y-86897385D01*
X158425095Y-86897846D01*
X158442854Y-86885651D01*
X158486471Y-86851161D01*
X158552141Y-86797520D01*
X158636060Y-86727871D01*
X158734421Y-86645357D01*
X158843420Y-86553122D01*
X158876994Y-86524563D01*
X158988266Y-86429772D01*
X159089714Y-86343298D01*
X159177571Y-86268354D01*
X159248072Y-86208155D01*
X159297452Y-86165915D01*
X159321942Y-86144849D01*
X159323858Y-86143153D01*
X159316123Y-86126042D01*
X159287343Y-86089934D01*
X159252967Y-86052398D01*
X159196041Y-85989225D01*
X159140265Y-85921127D01*
X159116896Y-85889824D01*
X159060267Y-85809879D01*
X158615276Y-86189712D01*
X158170284Y-86569546D01*
X155809896Y-86569546D01*
X155811703Y-86567614D01*
X155746428Y-86510645D01*
X155713451Y-86482167D01*
X155655699Y-86432613D01*
X155578147Y-86366239D01*
X155485773Y-86287302D01*
X155383554Y-86200061D01*
X155309923Y-86137281D01*
X154938692Y-85820885D01*
X154889846Y-85885558D01*
X154849754Y-85935034D01*
X154795654Y-85997312D01*
X154750670Y-86046610D01*
X154660341Y-86142990D01*
X154072193Y-86142990D01*
X154111891Y-86135553D01*
X154113192Y-86135225D01*
X154166577Y-86119364D01*
X154199742Y-86105054D01*
X154205216Y-86099334D01*
X154190630Y-86081789D01*
X154153314Y-86048103D01*
X154105713Y-86009072D01*
X154049871Y-85966889D01*
X154007429Y-85944224D01*
X153962068Y-85935917D01*
X153897473Y-85936806D01*
X153880005Y-85937674D01*
X153759627Y-85933949D01*
X153638717Y-85907298D01*
X153621489Y-85901913D01*
X153524763Y-85863691D01*
X153436935Y-85816003D01*
X153365070Y-85763991D01*
X153316231Y-85712795D01*
X153297485Y-85667558D01*
X153297461Y-85666103D01*
X153310787Y-85625730D01*
X153345904Y-85612120D01*
X153395521Y-85625935D01*
X153436421Y-85653478D01*
X153549036Y-85728286D01*
X153673953Y-85778854D01*
X153762836Y-85796392D01*
X153864077Y-85806474D01*
X153817198Y-85765397D01*
X153782206Y-85735217D01*
X153726401Y-85687612D01*
X153658866Y-85630319D01*
X153617319Y-85595205D01*
X153510524Y-85496104D01*
X153436174Y-85403959D01*
X153390250Y-85311679D01*
X153368733Y-85212171D01*
X153365846Y-85151486D01*
X153366584Y-85145703D01*
X153619628Y-85145703D01*
X153632198Y-85232344D01*
X153632286Y-85232670D01*
X153650590Y-85259432D01*
X153693942Y-85306003D01*
X153757209Y-85367372D01*
X153835258Y-85438528D01*
X153907446Y-85501310D01*
X154170701Y-85725509D01*
X154229439Y-85681562D01*
X154287735Y-85638422D01*
X154323573Y-85614946D01*
X154345787Y-85607395D01*
X154363210Y-85612025D01*
X154375798Y-85619572D01*
X154409081Y-85650018D01*
X154410646Y-85683921D01*
X154379447Y-85727465D01*
X154353245Y-85752950D01*
X154281925Y-85818278D01*
X154364710Y-85889139D01*
X154412111Y-85928033D01*
X154447238Y-85953772D01*
X154459366Y-85960000D01*
X154477937Y-85946953D01*
X154514966Y-85912823D01*
X154560300Y-85867192D01*
X154614998Y-85807339D01*
X154664874Y-85747976D01*
X154692206Y-85711691D01*
X154735050Y-85648998D01*
X154350939Y-85320922D01*
X154245008Y-85230890D01*
X154147006Y-85148439D01*
X154061408Y-85077266D01*
X153992687Y-85021069D01*
X153945316Y-84983545D01*
X153925222Y-84969115D01*
X153845394Y-84943720D01*
X153765656Y-84956314D01*
X153690714Y-85006083D01*
X153686277Y-85010430D01*
X153636696Y-85075674D01*
X153619628Y-85145703D01*
X153366584Y-85145703D01*
X153382962Y-85017411D01*
X153434584Y-84901516D01*
X153521121Y-84802892D01*
X153523723Y-84800650D01*
X153628086Y-84734871D01*
X153748143Y-84697646D01*
X153873054Y-84690583D01*
X153991977Y-84715288D01*
X154020384Y-84727023D01*
X154057248Y-84749878D01*
X154118271Y-84794379D01*
X154198226Y-84856419D01*
X154291885Y-84931888D01*
X154394019Y-85016678D01*
X154456858Y-85070031D01*
X154556959Y-85154845D01*
X154647296Y-85229660D01*
X154723683Y-85291148D01*
X154781932Y-85335983D01*
X154817858Y-85360838D01*
X154827509Y-85364541D01*
X154837733Y-85334882D01*
X154844351Y-85277000D01*
X154847228Y-85201598D01*
X154846227Y-85119374D01*
X154841212Y-85041031D01*
X154832403Y-84978956D01*
X154794057Y-84851604D01*
X154733546Y-84716469D01*
X154659226Y-84590177D01*
X154594649Y-84505791D01*
X154456847Y-84378299D01*
X154300886Y-84282021D01*
X154131892Y-84217035D01*
X153954989Y-84183418D01*
X153775303Y-84181247D01*
X153597959Y-84210599D01*
X153428083Y-84271552D01*
X153270801Y-84364183D01*
X153135658Y-84483794D01*
X153013495Y-84636428D01*
X152928069Y-84795079D01*
X152877043Y-84965598D01*
X152858079Y-85153837D01*
X152857846Y-85179020D01*
X152595048Y-85179020D01*
X152594008Y-85164402D01*
X152610734Y-84970960D01*
X152657145Y-84782461D01*
X152732339Y-84602596D01*
X152835417Y-84435055D01*
X152965478Y-84283529D01*
X153121621Y-84151710D01*
X153302946Y-84043288D01*
X153502615Y-83963786D01*
X153672631Y-83927473D01*
X153857873Y-83916369D01*
X154043895Y-83930249D01*
X154216255Y-83968891D01*
X154235120Y-83975108D01*
X154422402Y-84053144D01*
X154585319Y-84152949D01*
X154735916Y-84282099D01*
X154757566Y-84303837D01*
X154879380Y-84452380D01*
X154981376Y-84625072D01*
X155056427Y-84809103D01*
X155075267Y-84874835D01*
X155093705Y-84982836D01*
X155102550Y-85113180D01*
X155101756Y-85250314D01*
X155091274Y-85378690D01*
X155077056Y-85459745D01*
X155062786Y-85523878D01*
X155059404Y-85562334D01*
X155068828Y-85587471D01*
X155092974Y-85611644D01*
X155101784Y-85619198D01*
X155129203Y-85642644D01*
X155182228Y-85688020D01*
X155256784Y-85751839D01*
X155348797Y-85830613D01*
X155454193Y-85920853D01*
X155568898Y-86019073D01*
X155622538Y-86065006D01*
X156091461Y-86466568D01*
X156990230Y-86467177D01*
X157889000Y-86467786D01*
X158418477Y-86016870D01*
X158858093Y-85642481D01*
X159266461Y-85642481D01*
X159278641Y-85668497D01*
X159310677Y-85713876D01*
X159355814Y-85770775D01*
X159407296Y-85831350D01*
X159458368Y-85887759D01*
X159502273Y-85932159D01*
X159532257Y-85956705D01*
X159539265Y-85959198D01*
X159558279Y-85946688D01*
X159596659Y-85915134D01*
X159633961Y-85882251D01*
X159718153Y-85806104D01*
X159667360Y-85772824D01*
X159612501Y-85725499D01*
X159588614Y-85678411D01*
X159598679Y-85637571D01*
X159599652Y-85636366D01*
X159642163Y-85610565D01*
X159691366Y-85619773D01*
X159725164Y-85646885D01*
X159760049Y-85680124D01*
X159793430Y-85695096D01*
X159831736Y-85689935D01*
X159881398Y-85662773D01*
X159948847Y-85611743D01*
X160004100Y-85565879D01*
X160118669Y-85468341D01*
X160206196Y-85391336D01*
X160270176Y-85331016D01*
X160314102Y-85283533D01*
X160341470Y-85245037D01*
X160355774Y-85211680D01*
X160360509Y-85179612D01*
X160360615Y-85173203D01*
X160346942Y-85078424D01*
X160304853Y-85008837D01*
X160263128Y-84976536D01*
X160181109Y-84947463D01*
X160099128Y-84952868D01*
X160047462Y-84977224D01*
X160018139Y-84999719D01*
X159966385Y-85041773D01*
X159896978Y-85099317D01*
X159814699Y-85168278D01*
X159724325Y-85244588D01*
X159630635Y-85324174D01*
X159538408Y-85402967D01*
X159452423Y-85476896D01*
X159377459Y-85541890D01*
X159318294Y-85593879D01*
X159279708Y-85628793D01*
X159266461Y-85642481D01*
X158858093Y-85642481D01*
X158947954Y-85565953D01*
X158921897Y-85455246D01*
X158904763Y-85346555D01*
X158897058Y-85216755D01*
X158897298Y-85197075D01*
X159150948Y-85197075D01*
X159153788Y-85276688D01*
X159163290Y-85332173D01*
X159165258Y-85337504D01*
X159175307Y-85343088D01*
X159197731Y-85334814D01*
X159235576Y-85310441D01*
X159291888Y-85267724D01*
X159369710Y-85204421D01*
X159472089Y-85118289D01*
X159530230Y-85068707D01*
X159634191Y-84980996D01*
X159732934Y-84899946D01*
X159821125Y-84829757D01*
X159893434Y-84774634D01*
X159944527Y-84738777D01*
X159961361Y-84728934D01*
X160050087Y-84700959D01*
X160155376Y-84690363D01*
X160259100Y-84697742D01*
X160328471Y-84716863D01*
X160442585Y-84784382D01*
X160532220Y-84878242D01*
X160592974Y-84991939D01*
X160620448Y-85118971D01*
X160621599Y-85150071D01*
X160616777Y-85235952D01*
X160599105Y-85311176D01*
X160564590Y-85382213D01*
X160509236Y-85455531D01*
X160429050Y-85537601D01*
X160324788Y-85630810D01*
X160116384Y-85810069D01*
X160226237Y-85798780D01*
X160361811Y-85767333D01*
X160492339Y-85704696D01*
X160563579Y-85653478D01*
X160619149Y-85619365D01*
X160665505Y-85613157D01*
X160695357Y-85634192D01*
X160702538Y-85666103D01*
X160684976Y-85711156D01*
X160636951Y-85762283D01*
X160565454Y-85814415D01*
X160477478Y-85862483D01*
X160380013Y-85901419D01*
X160376266Y-85902634D01*
X160277551Y-85929042D01*
X160188428Y-85938551D01*
X160109082Y-85936103D01*
X159975670Y-85926557D01*
X159879950Y-86009801D01*
X159832917Y-86053911D01*
X159802884Y-86088419D01*
X159796335Y-86105383D01*
X159820369Y-86115768D01*
X159871282Y-86130795D01*
X159933104Y-86146046D01*
X160076048Y-86164934D01*
X160231735Y-86162918D01*
X160382025Y-86140941D01*
X160462247Y-86118503D01*
X160641319Y-86037208D01*
X160797544Y-85927001D01*
X160928100Y-85791783D01*
X161030164Y-85635453D01*
X161100915Y-85461911D01*
X161137529Y-85275057D01*
X161142154Y-85179020D01*
X161127049Y-84988142D01*
X161080178Y-84815719D01*
X160999200Y-84655899D01*
X160881779Y-84502830D01*
X160864341Y-84483794D01*
X160719980Y-84356088D01*
X160557403Y-84262891D01*
X160377165Y-84204435D01*
X160179819Y-84180955D01*
X160145447Y-84180459D01*
X159949383Y-84198812D01*
X159766904Y-84252278D01*
X159601314Y-84338266D01*
X159455916Y-84454187D01*
X159334015Y-84597454D01*
X159238916Y-84765477D01*
X159178325Y-84938201D01*
X159163625Y-85015358D01*
X159154364Y-85105807D01*
X159150948Y-85197075D01*
X158897298Y-85197075D01*
X158898705Y-85081445D01*
X158909629Y-84956227D01*
X158924732Y-84874835D01*
X158995161Y-84671430D01*
X159096471Y-84486838D01*
X159224810Y-84323542D01*
X159376327Y-84184023D01*
X159547172Y-84070762D01*
X159733494Y-83986240D01*
X159931440Y-83932939D01*
X160137160Y-83913340D01*
X160346804Y-83929924D01*
G37*
%TO.C,U1*%
D14*
X162140000Y-83390000D02*
X162315000Y-83390000D01*
X162140000Y-84065000D02*
X162140000Y-83390000D01*
X162140000Y-86610000D02*
X162140000Y-85935000D01*
X162315000Y-86610000D02*
X162140000Y-86610000D01*
X164685000Y-83390000D02*
X164860000Y-83390000D01*
X164860000Y-83390000D02*
X164860000Y-84065000D01*
X164860000Y-85935000D02*
X164860000Y-86610000D01*
X164860000Y-86610000D02*
X164685000Y-86610000D01*
X162990000Y-87070000D02*
X162510000Y-87070000D01*
X162750000Y-86740000D01*
X162990000Y-87070000D01*
G36*
X162990000Y-87070000D02*
G01*
X162510000Y-87070000D01*
X162750000Y-86740000D01*
X162990000Y-87070000D01*
G37*
%TO.C,REGU-C20*%
X145738748Y-80765000D02*
X146261252Y-80765000D01*
X145738748Y-82235000D02*
X146261252Y-82235000D01*
%TO.C,BOOT-R2*%
X170727064Y-94265000D02*
X170272936Y-94265000D01*
X170727064Y-95735000D02*
X170272936Y-95735000D01*
%TO.C,RES-C5*%
X139711252Y-99590000D02*
X138288748Y-99590000D01*
X139711252Y-101410000D02*
X138288748Y-101410000D01*
%TO.C,PA2-R8*%
X164765000Y-110772936D02*
X164765000Y-111227064D01*
X166235000Y-110772936D02*
X166235000Y-111227064D01*
%TD*%
M02*
