%TF.GenerationSoftware,KiCad,Pcbnew,10.0.1*%
%TF.CreationDate,2026-04-25T00:08:50-05:00*%
%TF.ProjectId,REALdronePCB,5245414c-6472-46f6-9e65-5043422e6b69,rev?*%
%TF.SameCoordinates,Original*%
%TF.FileFunction,Soldermask,Bot*%
%TF.FilePolarity,Negative*%
%FSLAX46Y46*%
G04 Gerber Fmt 4.6, Leading zero omitted, Abs format (unit mm)*
G04 Created by KiCad (PCBNEW 10.0.1) date 2026-04-25 00:08:50*
%MOMM*%
%LPD*%
G01*
G04 APERTURE LIST*
G04 Aperture macros list*
%AMRoundRect*
0 Rectangle with rounded corners*
0 $1 Rounding radius*
0 $2 $3 $4 $5 $6 $7 $8 $9 X,Y pos of 4 corners*
0 Add a 4 corners polygon primitive as box body*
4,1,4,$2,$3,$4,$5,$6,$7,$8,$9,$2,$3,0*
0 Add four circle primitives for the rounded corners*
1,1,$1+$1,$2,$3*
1,1,$1+$1,$4,$5*
1,1,$1+$1,$6,$7*
1,1,$1+$1,$8,$9*
0 Add four rect primitives between the rounded corners*
20,1,$1+$1,$2,$3,$4,$5,0*
20,1,$1+$1,$4,$5,$6,$7,0*
20,1,$1+$1,$6,$7,$8,$9,0*
20,1,$1+$1,$8,$9,$2,$3,0*%
G04 Aperture macros list end*
%ADD10C,5.000000*%
%ADD11R,1.700000X1.700000*%
%ADD12C,1.700000*%
%ADD13RoundRect,0.250000X-0.400000X0.550000X-0.400000X-0.550000X0.400000X-0.550000X0.400000X0.550000X0*%
%ADD14R,1.000000X1.000000*%
%ADD15R,4.000000X1.200000*%
%ADD16RoundRect,0.250000X0.350000X0.450000X-0.350000X0.450000X-0.350000X-0.450000X0.350000X-0.450000X0*%
%ADD17RoundRect,0.237500X-0.237500X0.300000X-0.237500X-0.300000X0.237500X-0.300000X0.237500X0.300000X0*%
%ADD18RoundRect,0.250000X-0.412500X-0.650000X0.412500X-0.650000X0.412500X0.650000X-0.412500X0.650000X0*%
%ADD19RoundRect,0.250000X-0.650000X0.325000X-0.650000X-0.325000X0.650000X-0.325000X0.650000X0.325000X0*%
%ADD20RoundRect,0.102000X0.654000X-0.654000X0.654000X0.654000X-0.654000X0.654000X-0.654000X-0.654000X0*%
%ADD21C,1.512000*%
%ADD22RoundRect,0.225000X-0.250000X0.225000X-0.250000X-0.225000X0.250000X-0.225000X0.250000X0.225000X0*%
%ADD23RoundRect,0.250000X-0.350000X-0.450000X0.350000X-0.450000X0.350000X0.450000X-0.350000X0.450000X0*%
G04 APERTURE END LIST*
D10*
%TO.C,H4*%
X170500000Y-110500000D03*
%TD*%
%TO.C,H3*%
X140000000Y-110500000D03*
%TD*%
%TO.C,H2*%
X170500000Y-80000000D03*
%TD*%
%TO.C,H1*%
X140000000Y-80000000D03*
%TD*%
D11*
%TO.C,J2*%
X164115000Y-98160000D03*
D12*
X164115000Y-95620000D03*
X164115000Y-93080000D03*
X164115000Y-90540000D03*
X164115000Y-88000000D03*
%TD*%
D13*
%TO.C,Y2*%
X165500000Y-103844884D03*
X165500000Y-107144884D03*
X163500000Y-107144884D03*
X163500000Y-103844884D03*
%TD*%
D14*
%TO.C,TP7*%
X166500000Y-76500000D03*
%TD*%
%TO.C,TP5*%
X162500000Y-76500000D03*
%TD*%
%TO.C,TP8*%
X168500000Y-76500000D03*
%TD*%
D15*
%TO.C,BZ1*%
X149000000Y-95300000D03*
X149000000Y-106500000D03*
%TD*%
D16*
%TO.C,I2C-R2*%
X149000000Y-81500000D03*
X147000000Y-81500000D03*
%TD*%
D17*
%TO.C,SW-C2*%
X152000000Y-87137500D03*
X152000000Y-88862500D03*
%TD*%
D18*
%TO.C,CRY-C13*%
X162937500Y-111144884D03*
X166062500Y-111144884D03*
%TD*%
D14*
%TO.C,TP4*%
X148500000Y-76500000D03*
%TD*%
D19*
%TO.C,SW-C3*%
X149500000Y-87050000D03*
X149500000Y-90000000D03*
%TD*%
D14*
%TO.C,TP6*%
X164500000Y-76500000D03*
%TD*%
D20*
%TO.C,SW5*%
X140000000Y-90162500D03*
D21*
X140000000Y-87662500D03*
X140000000Y-85162500D03*
%TD*%
D18*
%TO.C,CRY-C12*%
X169437500Y-103494884D03*
X172562500Y-103494884D03*
%TD*%
D22*
%TO.C,SW-C1*%
X147000000Y-86950000D03*
X147000000Y-88500000D03*
%TD*%
D14*
%TO.C,TP2*%
X144500000Y-76500000D03*
%TD*%
%TO.C,TP1*%
X142500000Y-76500000D03*
%TD*%
%TO.C,TP3*%
X146500000Y-76500000D03*
%TD*%
D23*
%TO.C,I2C-R1*%
X145500000Y-78500000D03*
X147500000Y-78500000D03*
%TD*%
M02*
