%TF.GenerationSoftware,KiCad,Pcbnew,10.0.1*%
%TF.CreationDate,2026-04-25T00:08:49-05:00*%
%TF.ProjectId,REALdronePCB,5245414c-6472-46f6-9e65-5043422e6b69,rev?*%
%TF.SameCoordinates,Original*%
%TF.FileFunction,Paste,Top*%
%TF.FilePolarity,Positive*%
%FSLAX46Y46*%
G04 Gerber Fmt 4.6, Leading zero omitted, Abs format (unit mm)*
G04 Created by KiCad (PCBNEW 10.0.1) date 2026-04-25 00:08:49*
%MOMM*%
%LPD*%
G01*
G04 APERTURE LIST*
G04 Aperture macros list*
%AMRoundRect*
0 Rectangle with rounded corners*
0 $1 Rounding radius*
0 $2 $3 $4 $5 $6 $7 $8 $9 X,Y pos of 4 corners*
0 Add a 4 corners polygon primitive as box body*
4,1,4,$2,$3,$4,$5,$6,$7,$8,$9,$2,$3,0*
0 Add four circle primitives for the rounded corners*
1,1,$1+$1,$2,$3*
1,1,$1+$1,$4,$5*
1,1,$1+$1,$6,$7*
1,1,$1+$1,$8,$9*
0 Add four rect primitives between the rounded corners*
20,1,$1+$1,$2,$3,$4,$5,0*
20,1,$1+$1,$4,$5,$6,$7,0*
20,1,$1+$1,$6,$7,$8,$9,0*
20,1,$1+$1,$8,$9,$2,$3,0*%
G04 Aperture macros list end*
%ADD10RoundRect,0.250000X-0.450000X0.350000X-0.450000X-0.350000X0.450000X-0.350000X0.450000X0.350000X0*%
%ADD11RoundRect,0.250000X-0.650000X0.412500X-0.650000X-0.412500X0.650000X-0.412500X0.650000X0.412500X0*%
%ADD12RoundRect,0.250000X0.650000X-0.412500X0.650000X0.412500X-0.650000X0.412500X-0.650000X-0.412500X0*%
%ADD13R,0.900000X1.700000*%
%ADD14RoundRect,0.250000X-0.412500X-0.650000X0.412500X-0.650000X0.412500X0.650000X-0.412500X0.650000X0*%
%ADD15R,1.981200X0.533400*%
%ADD16RoundRect,0.250000X0.412500X0.650000X-0.412500X0.650000X-0.412500X-0.650000X0.412500X-0.650000X0*%
%ADD17R,0.300000X1.475000*%
%ADD18R,1.475000X0.300000*%
%ADD19RoundRect,0.150000X0.150000X0.625000X-0.150000X0.625000X-0.150000X-0.625000X0.150000X-0.625000X0*%
%ADD20RoundRect,0.250000X0.350000X0.650000X-0.350000X0.650000X-0.350000X-0.650000X0.350000X-0.650000X0*%
%ADD21RoundRect,0.250000X0.350000X0.450000X-0.350000X0.450000X-0.350000X-0.450000X0.350000X-0.450000X0*%
%ADD22RoundRect,0.087500X0.087500X-0.225000X0.087500X0.225000X-0.087500X0.225000X-0.087500X-0.225000X0*%
%ADD23RoundRect,0.087500X0.225000X-0.087500X0.225000X0.087500X-0.225000X0.087500X-0.225000X-0.087500X0*%
%ADD24RoundRect,0.250000X-0.337500X-0.475000X0.337500X-0.475000X0.337500X0.475000X-0.337500X0.475000X0*%
G04 APERTURE END LIST*
D10*
%TO.C,ROSC-R6*%
X163000000Y-110000000D03*
X163000000Y-112000000D03*
%TD*%
D11*
%TO.C,REGU-C11*%
X151000000Y-85437500D03*
X151000000Y-88562500D03*
%TD*%
D12*
%TO.C,VDD-C17*%
X160000000Y-112562500D03*
X160000000Y-109437500D03*
%TD*%
D13*
%TO.C,SW7*%
X146700000Y-102000000D03*
X143300000Y-102000000D03*
%TD*%
D14*
%TO.C,RC-C8*%
X137437500Y-97500000D03*
X140562500Y-97500000D03*
%TD*%
D15*
%TO.C,U3*%
X142500000Y-84595000D03*
X142500000Y-85865000D03*
X142500000Y-87135000D03*
X142500000Y-88405000D03*
X147427600Y-88405000D03*
X147427600Y-87135000D03*
X147427600Y-85865000D03*
X147427600Y-84595000D03*
%TD*%
D12*
%TO.C,REGU-C9*%
X137000000Y-88062500D03*
X137000000Y-84937500D03*
%TD*%
%TO.C,IMU-C15*%
X168000000Y-88062500D03*
X168000000Y-84937500D03*
%TD*%
D16*
%TO.C,MCU-C19*%
X140625000Y-104000000D03*
X137500000Y-104000000D03*
%TD*%
D11*
%TO.C,TANK-C4*%
X145000000Y-109437500D03*
X145000000Y-112562500D03*
%TD*%
D17*
%TO.C,IC2*%
X154000000Y-103500000D03*
X154500000Y-103500000D03*
X155000000Y-103500000D03*
X155500000Y-103500000D03*
X156000000Y-103500000D03*
X156500000Y-103500000D03*
X157000000Y-103500000D03*
X157500000Y-103500000D03*
X158000000Y-103500000D03*
X158500000Y-103500000D03*
X159000000Y-103500000D03*
X159500000Y-103500000D03*
D18*
X160988000Y-102012000D03*
X160988000Y-101512000D03*
X160988000Y-101012000D03*
X160988000Y-100512000D03*
X160988000Y-100012000D03*
X160988000Y-99512000D03*
X160988000Y-99012000D03*
X160988000Y-98512000D03*
X160988000Y-98012000D03*
X160988000Y-97512000D03*
X160988000Y-97012000D03*
X160988000Y-96512000D03*
D17*
X159500000Y-95024000D03*
X159000000Y-95024000D03*
X158500000Y-95024000D03*
X158000000Y-95024000D03*
X157500000Y-95024000D03*
X157000000Y-95024000D03*
X156500000Y-95024000D03*
X156000000Y-95024000D03*
X155500000Y-95024000D03*
X155000000Y-95024000D03*
X154500000Y-95024000D03*
X154000000Y-95024000D03*
D18*
X152512000Y-96512000D03*
X152512000Y-97012000D03*
X152512000Y-97512000D03*
X152512000Y-98012000D03*
X152512000Y-98512000D03*
X152512000Y-99012000D03*
X152512000Y-99512000D03*
X152512000Y-100012000D03*
X152512000Y-100512000D03*
X152512000Y-101012000D03*
X152512000Y-101512000D03*
X152512000Y-102012000D03*
%TD*%
D13*
%TO.C,SW6*%
X168800000Y-92000000D03*
X172200000Y-92000000D03*
%TD*%
D19*
%TO.C,J1*%
X159000000Y-80875000D03*
X158000000Y-80875000D03*
X157000000Y-80875000D03*
X156000000Y-80875000D03*
X155000000Y-80875000D03*
X154000000Y-80875000D03*
X153000000Y-80875000D03*
X152000000Y-80875000D03*
D20*
X160300000Y-77000000D03*
X150700000Y-77000000D03*
%TD*%
D10*
%TO.C,PA1-R4*%
X154000000Y-110500000D03*
X154000000Y-112500000D03*
%TD*%
D21*
%TO.C,RES-R1*%
X141000000Y-93500000D03*
X139000000Y-93500000D03*
%TD*%
D12*
%TO.C,IMU-C7*%
X172000000Y-103562500D03*
X172000000Y-100437500D03*
%TD*%
D21*
%TO.C,MCU-R7*%
X146000000Y-93500000D03*
X144000000Y-93500000D03*
%TD*%
D12*
%TO.C,VCORE-C16*%
X148000000Y-112562500D03*
X148000000Y-109437500D03*
%TD*%
D10*
%TO.C,PA0-R3*%
X151000000Y-110500000D03*
X151000000Y-112500000D03*
%TD*%
D12*
%TO.C,VSS-C18*%
X157000000Y-112562500D03*
X157000000Y-109437500D03*
%TD*%
D21*
%TO.C,RC-R5*%
X146000000Y-97000000D03*
X144000000Y-97000000D03*
%TD*%
D12*
%TO.C,IMU-C6*%
X168000000Y-103562500D03*
X168000000Y-100437500D03*
%TD*%
D22*
%TO.C,U1*%
X162750000Y-86162500D03*
X163250000Y-86162500D03*
X163750000Y-86162500D03*
X164250000Y-86162500D03*
D23*
X164412500Y-85500000D03*
X164412500Y-85000000D03*
X164412500Y-84500000D03*
D22*
X164250000Y-83837500D03*
X163750000Y-83837500D03*
X163250000Y-83837500D03*
X162750000Y-83837500D03*
D23*
X162587500Y-84500000D03*
X162587500Y-85000000D03*
X162587500Y-85500000D03*
%TD*%
D24*
%TO.C,REGU-C20*%
X144962500Y-81500000D03*
X147037500Y-81500000D03*
%TD*%
D21*
%TO.C,BOOT-R2*%
X171500000Y-95000000D03*
X169500000Y-95000000D03*
%TD*%
D16*
%TO.C,RES-C5*%
X140562500Y-100500000D03*
X137437500Y-100500000D03*
%TD*%
D10*
%TO.C,PA2-R8*%
X165500000Y-110000000D03*
X165500000Y-112000000D03*
%TD*%
M02*
